<?xml version="1.0" encoding="utf-8"?>
<!-- Generator: Adobe Illustrator 27.5.0, SVG Export Plug-In . SVG Version: 6.00 Build 0)  -->
<svg version="1.1" xmlns="http://www.w3.org/2000/svg" xmlns:xlink="http://www.w3.org/1999/xlink" x="0px" y="0px"
	 viewBox="0 0 750 500" style="enable-background:new 0 0 750 500;" xml:space="preserve">
<g id="BACKGROUND">
</g>
<g id="OBJECTS">
	<g>
		<g>
			<g>
				<path style="fill:#FFAC9D;" d="M698.879,414.272c-5.946-15.98-42.314-23.612-48.683-28.243
					c-8.176-5.946-5.574-25.642-5.574-25.642l-13.379,0.352l-13.378-0.352c0,0,2.601,19.696-5.574,25.642
					c-6.368,4.632-42.737,12.264-48.683,28.243c-5.946,15.98-8.176,30.102-8.176,30.102H630.5h1.487h75.068
					C707.055,444.373,704.825,430.251,698.879,414.272z"/>
				<path style="fill:#CC887F;" d="M615.386,382.358c6.263-0.64,12.558-1.909,18.011-4.959c3.975-2.223,7.554-4.848,10.876-7.803
					c-0.197-5.061,0.349-9.21,0.349-9.21l-13.379,0.352l-13.378-0.352C617.865,360.386,619.716,374.404,615.386,382.358z"/>
			</g>
			<g>
				<path style="fill:#FFA65B;" d="M700.199,414.05c-2.177-5.851-8.402-10.59-15.753-14.478
					c-13.129,8.96-31.732,14.562-52.38,14.562c-20.646,0-39.249-5.601-52.377-14.56c-7.35,3.887-13.579,8.625-15.756,14.475
					c-5.99,16.097-8.236,30.323-8.236,30.323h75.62h1.497h75.62C708.435,444.373,706.189,430.148,700.199,414.05z"/>
				<g>
					<defs>
						<path id="SVGID_1_" d="M700.199,414.05c-2.177-5.851-8.402-10.59-15.753-14.478c-13.129,8.96-31.732,14.562-52.38,14.562
							c-20.646,0-39.249-5.601-52.377-14.56c-7.35,3.887-13.579,8.625-15.756,14.475c-5.99,16.097-8.236,30.323-8.236,30.323h75.62
							h1.497h75.62C708.435,444.373,706.189,430.148,700.199,414.05z"/>
					</defs>
					<clipPath id="SVGID_00000152237668957103150640000016879616801378815650_">
						<use xlink:href="#SVGID_1_"  style="overflow:visible;"/>
					</clipPath>
					<g style="clip-path:url(#SVGID_00000152237668957103150640000016879616801378815650_);">
						<circle style="fill:#352C38;" cx="663.582" cy="414.818" r="9.573"/>
						<circle style="fill:#352C38;" cx="629.937" cy="414.818" r="9.573"/>
						<circle style="fill:#352C38;" cx="596.292" cy="414.818" r="9.573"/>
						<circle style="fill:#352C38;" cx="562.647" cy="414.818" r="9.573"/>
						<circle style="fill:#352C38;" cx="697.227" cy="414.818" r="9.573"/>
					</g>
					<g style="clip-path:url(#SVGID_00000152237668957103150640000016879616801378815650_);">
						<circle style="fill:#352C38;" cx="679.348" cy="440.721" r="9.573"/>
						<circle style="fill:#352C38;" cx="645.703" cy="440.721" r="9.573"/>
						<circle style="fill:#352C38;" cx="612.059" cy="440.721" r="9.573"/>
						<circle style="fill:#352C38;" cx="578.414" cy="440.721" r="9.573"/>
						<circle style="fill:#352C38;" cx="712.993" cy="440.721" r="9.573"/>
					</g>
				</g>
			</g>
		</g>
		<g>
			<g>
				<path style="fill:#CC887F;" d="M653.037,329.681c2.161-6.703,7.277-5.151,7.756-4.99c0.502,0.059,5.791,0.844,4.877,7.827
					c-0.919,7.025-4.995,10.832-8.818,9.714C652.92,341.609,650.864,336.424,653.037,329.681z"/>
				<path style="fill:#FFAC9D;" d="M657.498,319.135c-2.678-29.387-25.019-27.741-27.126-27.52
					c-2.107-0.221-24.448-1.867-27.126,27.52c-2.694,29.563,10.474,48.87,27.126,47.808
					C647.024,368.005,660.192,348.698,657.498,319.135z"/>
			</g>
			<g>
				<g>
					<path style="fill:#CC887F;" d="M633.565,329.169c0.16,0.472,0.281,0.95,0.413,1.426c0.137,0.475,0.247,0.955,0.36,1.434
						c0.219,0.958,0.407,1.922,0.578,2.887c0.159,0.967,0.322,1.934,0.439,2.907c0.133,0.971,0.233,1.947,0.317,2.924l0.022,0.253
						l-0.156,0.134c-0.589,0.504-1.19,0.996-1.799,1.479c-0.627,0.464-1.229,0.955-1.881,1.393c0.472-0.628,0.995-1.202,1.493-1.803
						c0.516-0.582,1.039-1.156,1.574-1.717l-0.135,0.387c-0.193-0.962-0.371-1.927-0.516-2.896c-0.16-0.967-0.275-1.94-0.393-2.914
						c-0.107-0.975-0.196-1.952-0.255-2.933c-0.026-0.491-0.055-0.982-0.056-1.477C633.561,330.16,633.544,329.667,633.565,329.169z
						"/>
				</g>
				<path style="fill:#FFFFFF;" d="M617.437,348.332l26.513-0.278C643.95,348.054,633.347,358.488,617.437,348.332z"/>
				<g>
					<path style="fill:#CC887F;" d="M624.235,353.657c0,0,0.284,0.061,0.77,0.194c0.486,0.113,1.175,0.385,2.01,0.512
						c0.416,0.073,0.862,0.152,1.326,0.25c0.457,0.126,0.98,0.086,1.492,0.159c0.518,0.046,1.051,0.117,1.595,0.07
						c0.542-0.022,1.095-0.019,1.643-0.059c0.543-0.086,1.087-0.172,1.622-0.257c0.545-0.048,1.036-0.278,1.538-0.402
						c0.492-0.158,0.995-0.252,1.415-0.483c0.432-0.202,0.85-0.381,1.239-0.546c0.401-0.146,0.714-0.374,1.016-0.542
						c0.299-0.176,0.56-0.33,0.774-0.457c0.434-0.252,0.696-0.387,0.696-0.387s-0.195,0.208-0.562,0.557
						c-0.186,0.174-0.411,0.385-0.67,0.627c-0.264,0.238-0.54,0.546-0.928,0.752c-0.369,0.236-0.774,0.491-1.211,0.748
						c-0.421,0.294-0.93,0.463-1.45,0.659c-0.26,0.098-0.525,0.197-0.793,0.297l-0.406,0.15l-0.429,0.079
						c-0.576,0.104-1.16,0.209-1.745,0.315c-0.591,0.031-1.186,0.017-1.769,0.025c-0.586,0.041-1.149-0.094-1.695-0.173
						c-0.544-0.104-1.076-0.136-1.558-0.322c-0.487-0.153-0.94-0.312-1.354-0.458c-0.425-0.124-0.772-0.312-1.078-0.484
						c-0.309-0.165-0.579-0.31-0.801-0.429C624.483,353.809,624.235,353.657,624.235,353.657z"/>
				</g>
				<g>
					<path style="fill:#352C38;" d="M616.473,329.612c0,2.213,0.822,4.008,1.835,4.008c1.013,0,1.835-1.794,1.835-4.008
						c0-2.213-0.821-4.008-1.835-4.008C617.294,325.604,616.473,327.399,616.473,329.612z"/>
					<path style="fill:#352C38;" d="M641.687,329.612c0,2.213,0.821,4.008,1.835,4.008c1.013,0,1.835-1.794,1.835-4.008
						c0-2.213-0.821-4.008-1.835-4.008C642.508,325.604,641.687,327.399,641.687,329.612z"/>
				</g>
				<g>
					<path style="fill:#352C38;" d="M611.969,323.054c0,0,0.319-0.961,1.311-2.076c0.261-0.26,0.522-0.58,0.867-0.84
						c0.328-0.282,0.702-0.551,1.123-0.788c0.4-0.268,0.888-0.434,1.362-0.632c0.508-0.124,1.013-0.305,1.56-0.316
						c0.27-0.015,0.54-0.035,0.809-0.038c0.269,0.025,0.537,0.066,0.801,0.103c0.537,0.034,1.015,0.281,1.484,0.441
						c0.468,0.174,0.842,0.486,1.219,0.716c0.387,0.224,0.633,0.578,0.906,0.836c0.264,0.269,0.497,0.516,0.644,0.788
						c0.166,0.252,0.292,0.486,0.397,0.672c0.205,0.378,0.301,0.6,0.301,0.6s-0.234-0.106-0.605-0.303
						c-0.183-0.101-0.407-0.217-0.642-0.364c-0.228-0.159-0.532-0.265-0.828-0.412c-0.312-0.12-0.601-0.332-0.96-0.417
						c-0.351-0.093-0.686-0.273-1.06-0.332c-0.375-0.046-0.735-0.191-1.123-0.174c-0.191-0.011-0.383-0.017-0.574-0.04l-0.581,0.048
						c-0.391-0.015-0.774,0.133-1.165,0.174c-0.377,0.133-0.772,0.192-1.135,0.353c-0.372,0.129-0.733,0.273-1.072,0.433
						c-0.35,0.137-0.663,0.318-0.977,0.452c-0.303,0.16-0.581,0.307-0.827,0.437c-0.251,0.138-0.47,0.258-0.651,0.356
						C612.181,322.937,611.969,323.054,611.969,323.054z"/>
				</g>
				<g>
					<path style="fill:#352C38;" d="M637.36,323.054c0,0,0.319-0.961,1.311-2.076c0.261-0.26,0.522-0.58,0.867-0.84
						c0.328-0.282,0.702-0.551,1.123-0.788c0.4-0.268,0.888-0.434,1.362-0.632c0.508-0.124,1.013-0.305,1.56-0.316
						c0.27-0.015,0.54-0.035,0.809-0.038c0.269,0.025,0.537,0.066,0.801,0.103c0.537,0.034,1.014,0.281,1.484,0.441
						c0.468,0.174,0.842,0.486,1.219,0.716c0.387,0.224,0.633,0.578,0.906,0.836c0.264,0.269,0.497,0.516,0.644,0.788
						c0.166,0.252,0.292,0.486,0.397,0.672c0.206,0.378,0.301,0.6,0.301,0.6s-0.234-0.106-0.604-0.303
						c-0.183-0.101-0.407-0.217-0.642-0.364c-0.228-0.159-0.532-0.265-0.828-0.412c-0.312-0.12-0.601-0.332-0.959-0.417
						c-0.352-0.093-0.686-0.273-1.06-0.332c-0.375-0.046-0.735-0.191-1.124-0.174c-0.191-0.011-0.383-0.017-0.574-0.04l-0.581,0.048
						c-0.391-0.015-0.774,0.133-1.165,0.174c-0.377,0.133-0.772,0.192-1.135,0.353c-0.372,0.129-0.733,0.273-1.073,0.433
						c-0.35,0.137-0.663,0.318-0.977,0.452c-0.303,0.16-0.581,0.307-0.827,0.437c-0.251,0.138-0.47,0.258-0.651,0.356
						C637.573,322.937,637.36,323.054,637.36,323.054z"/>
				</g>
			</g>
			<g>
				<path style="fill:#765E69;" d="M612.344,296.456c0,0,0.663,18.576,22.889,21.893l-7.629-8.956c0,0,10.615,9.288,22.557,7.961
					c0,0-1.659-5.971-7.961-11.61c0,0,23.552,10.283,8.625,54.734c0,0,17.249-21.562,12.937-47.767
					c-5.127-31.157-31.884-34.313-43.455-28.528C610.354,289.158,612.344,296.456,612.344,296.456z"/>
				<path style="fill:#765E69;" d="M615.993,289.49c0,0-17.767-5.275-23.552,20.567c-4.976,22.225,4.976,42.792,22.225,56.392
					c0,0-9.951-9.62-10.615-34.167c-0.663-24.547,14.596-36.489,20.235-38.811C629.925,291.148,615.993,289.49,615.993,289.49z"/>
				<path style="opacity:0.4;fill:#352C38;" d="M663.76,312.71c-0.487-2.956-1.174-5.651-2.02-8.117
					c-1.434,6.014-4.014,11.727-7.579,17.174c2.441,8.377,2.693,20.752-3.338,38.71C650.823,360.478,668.073,338.916,663.76,312.71z
					"/>
				<path style="opacity:0.4;fill:#352C38;" d="M604.051,332.282c-0.15-5.54,0.516-10.432,1.696-14.72
					c-0.574-0.352-1.14-0.711-1.694-1.08c-3.98-2.647-7.73-5.492-10.488-9.452c-0.084-0.12-0.158-0.245-0.241-0.366
					c-0.318,1.067-0.615,2.193-0.883,3.393c-4.976,22.225,4.976,42.792,22.225,56.392
					C614.666,366.449,604.714,356.829,604.051,332.282z"/>
				<path style="fill:#CC887F;" d="M597.829,326.222c-1.17,1.112-2.113,3.014-1.684,6.296c0.685,5.239,3.127,8.685,5.91,9.637
					C600.14,336.608,598.899,330.824,597.829,326.222z"/>
			</g>
		</g>
	</g>
	<g>
		<g>
			<path style="fill:#965450;" d="M455.51,288.667c0,0,12.842-5.739,22.961-0.383s16.734,26.781,26.074,35.198
				c9.34,8.417,16.596,18.421,11.148,27.985c-5.448,9.565-10.759,8.743-5.31,22.133c5.448,13.391-17.36,16.586-12.69,26.533
				c0,0-11.828-21.942-8.325-41.072c3.503-19.129-6.227-64.657-21.793-63.127l-14.01-0.765L455.51,288.667z"/>
			<path style="fill:#965450;" d="M459.791,283.311c0,0,6.361-10.038,19.903-1.008c6.65,4.435,9.486,15.231,21.738,21.285
				c13.451,6.645,15.77,12.875,10.172,22.572c-3.462,5.997,7.213,4.825,1.937,19.737c-4.123,11.653-39.739-51.873-39.739-51.873
				l-14.788-1.913L459.791,283.311z"/>
			<path style="fill:#824846;" d="M501.185,327.797c0,0,10.51,8.482,7.216,18.506c-3.294,10.024-12.706,13.725-6.118,27.759
				c6.589,14.034-6.118,17.581-6.118,17.581s-30.746-2.159-26.981-34.699s19.691-33.522,19.691-33.522L501.185,327.797z"/>
			<path style="fill:#824846;" d="M501.185,327.797c0,0,10.51,8.482,7.216,18.506c-3.294,10.024-12.706,13.725-6.118,27.759
				c6.589,14.034-6.118,17.581-6.118,17.581s-30.746-2.159-26.981-34.699s19.691-33.522,19.691-33.522L501.185,327.797z"/>
			<path style="fill:#824846;" d="M422.808,303.71c0,0-11.726,11.358-10.948,22.33c0.778,10.973-2.647,19.235-8.313,24.148
				s-5.423,15.422,0.024,21.552c0,0-2.989-6.806,0.436-15.068c0,0-5.003,28.425,23.815,31.896c0,0-1.033-0.428-4.128-8.73
				c0,0,1.563,7.909,19.196,9.166c17.633,1.256,26.48-22.429,18.158-47.904c-8.322-25.475-24.848-32.324-24.848-32.324
				L422.808,303.71z"/>
		</g>
		<g>
			<g>
				<path style="fill:#FDDEC0;" d="M527.345,414.272c-5.946-15.98-42.314-23.612-48.683-28.243
					c-8.176-5.946-5.574-25.642-5.574-25.642l-13.378,0.352l-13.379-0.352c0,0,2.601,19.696-5.574,25.642
					c-6.368,4.632-42.737,12.264-48.683,28.243c-5.946,15.98-8.176,30.102-8.176,30.102h75.068h1.487h75.068
					C535.521,444.373,533.291,430.251,527.345,414.272z"/>
				<path style="fill:#E2C6AF;" d="M443.852,382.358c6.263-0.64,12.558-1.909,18.011-4.959c3.975-2.223,7.554-4.848,10.876-7.803
					c-0.197-5.061,0.348-9.21,0.348-9.21l-13.378,0.352l-13.379-0.352C446.331,360.386,448.182,374.404,443.852,382.358z"/>
			</g>
			<path style="fill:#6F96BD;" d="M528.4,414.05c-5.792-15.566-40.235-23.268-48.304-27.978c-6.373,3.706-14.146,5.891-22.544,5.891
				c-7.297,0-14.123-1.649-19.969-4.511c-11.311,4.814-40.19,12.464-45.449,26.598c-5.99,16.097-8.236,30.323-8.236,30.323h75.62
				h1.497h75.62C536.636,444.373,534.389,430.148,528.4,414.05z"/>
		</g>
		<g>
			<g>
				<path style="fill:#E2C6AF;" d="M437.245,329.681c-2.161-6.703-7.277-5.151-7.756-4.99c-0.502,0.059-5.791,0.844-4.877,7.827
					c0.919,7.025,4.995,10.832,8.817,9.714C437.362,341.609,439.418,336.424,437.245,329.681z"/>
				<path style="fill:#E2C6AF;" d="M481.503,329.681c2.161-6.703,7.277-5.151,7.756-4.99c0.502,0.059,5.791,0.844,4.877,7.827
					c-0.919,7.025-4.995,10.832-8.818,9.714C481.386,341.609,479.33,336.424,481.503,329.681z"/>
				<path style="fill:#FDDEC0;" d="M485.964,319.135c-2.678-29.387-25.019-27.741-27.126-27.52
					c-2.107-0.221-24.448-1.867-27.126,27.52c-2.694,29.563,10.474,48.87,27.126,47.808
					C475.49,368.005,488.658,348.698,485.964,319.135z"/>
			</g>
			<g>
				<g>
					<path style="fill:#E2C6AF;" d="M462.031,329.169c0.433,0.928,0.761,1.871,1.041,2.821c0.154,0.473,0.257,0.953,0.388,1.43
						c0.127,0.477,0.212,0.96,0.32,1.439c0.205,0.961,0.359,1.929,0.483,2.901c0.134,0.971,0.198,1.952,0.267,2.932l0.036,0.509
						l-0.291,0.222c-1.237,0.946-2.502,1.864-3.953,2.584c0.798-1.41,1.782-2.623,2.794-3.808l-0.255,0.731
						c-0.208-0.96-0.422-1.919-0.565-2.889c-0.153-0.968-0.277-1.94-0.349-2.92c-0.031-0.491-0.085-0.978-0.096-1.471
						c-0.008-0.494-0.043-0.984-0.028-1.481C461.825,331.179,461.876,330.181,462.031,329.169z"/>
				</g>
				<path style="fill:#FFFFFF;" d="M445.903,348.332l26.513-0.278C472.416,348.054,461.813,358.488,445.903,348.332z"/>
				<g>
					<path style="fill:#E2C6AF;" d="M452.702,353.657c0,0,0.282,0.066,0.766,0.204c0.484,0.117,1.168,0.398,2.003,0.532
						c0.416,0.077,0.862,0.16,1.327,0.261c0.458,0.129,0.982,0.093,1.496,0.167c0.52,0.048,1.054,0.122,1.6,0.076
						c0.545-0.021,1.1-0.018,1.65-0.057c0.546-0.087,1.091-0.174,1.628-0.26c0.547-0.048,1.039-0.282,1.543-0.409
						c0.494-0.16,0.996-0.258,1.417-0.493c0.432-0.205,0.849-0.387,1.238-0.556c0.4-0.15,0.712-0.381,1.012-0.552
						c0.297-0.18,0.556-0.337,0.769-0.466c0.431-0.257,0.69-0.396,0.69-0.396s-0.199,0.204-0.569,0.549
						c-0.187,0.171-0.415,0.379-0.676,0.618c-0.266,0.234-0.544,0.538-0.932,0.741c-0.37,0.232-0.775,0.483-1.213,0.738
						c-0.421,0.29-0.93,0.456-1.448,0.65c-0.26,0.096-0.524,0.194-0.791,0.293l-0.405,0.148l-0.427,0.078
						c-0.573,0.103-1.156,0.207-1.738,0.312c-0.589,0.031-1.182,0.018-1.762,0.027c-0.584,0.041-1.146-0.091-1.69-0.168
						c-0.542-0.102-1.074-0.13-1.555-0.314c-0.486-0.15-0.938-0.305-1.352-0.447c-0.425-0.121-0.774-0.304-1.081-0.473
						c-0.311-0.162-0.581-0.303-0.805-0.419C452.951,353.804,452.702,353.657,452.702,353.657z"/>
				</g>
				<g>
					<path style="fill:#352C38;" d="M444.939,329.612c0,2.213,0.822,4.008,1.835,4.008c1.013,0,1.835-1.794,1.835-4.008
						c0-2.213-0.822-4.008-1.835-4.008C445.76,325.604,444.939,327.399,444.939,329.612z"/>
					<path style="fill:#352C38;" d="M470.153,329.612c0,2.213,0.822,4.008,1.835,4.008c1.013,0,1.835-1.794,1.835-4.008
						c0-2.213-0.821-4.008-1.835-4.008C470.974,325.604,470.153,327.399,470.153,329.612z"/>
				</g>
				<g>
					<path style="fill:#352C38;" d="M440.435,323.054c0,0,0.319-0.961,1.311-2.076c0.261-0.26,0.522-0.58,0.868-0.84
						c0.328-0.282,0.702-0.551,1.123-0.788c0.4-0.268,0.888-0.434,1.362-0.632c0.508-0.124,1.013-0.305,1.56-0.316
						c0.27-0.015,0.54-0.035,0.809-0.038c0.27,0.025,0.537,0.066,0.801,0.103c0.537,0.034,1.014,0.281,1.484,0.441
						c0.468,0.174,0.842,0.486,1.219,0.716c0.387,0.224,0.633,0.578,0.906,0.836c0.264,0.269,0.497,0.516,0.644,0.788
						c0.166,0.252,0.292,0.486,0.397,0.672c0.206,0.378,0.301,0.6,0.301,0.6s-0.234-0.106-0.604-0.303
						c-0.183-0.101-0.407-0.217-0.642-0.364c-0.228-0.159-0.532-0.265-0.828-0.412c-0.311-0.12-0.601-0.332-0.96-0.417
						c-0.351-0.093-0.686-0.273-1.06-0.332c-0.375-0.046-0.735-0.191-1.124-0.174c-0.191-0.011-0.383-0.017-0.574-0.04l-0.581,0.048
						c-0.391-0.015-0.774,0.133-1.165,0.174c-0.377,0.133-0.772,0.192-1.135,0.353c-0.372,0.129-0.733,0.273-1.073,0.433
						c-0.35,0.137-0.663,0.318-0.977,0.452c-0.303,0.16-0.581,0.307-0.827,0.437c-0.251,0.138-0.47,0.258-0.651,0.356
						C440.647,322.937,440.435,323.054,440.435,323.054z"/>
				</g>
				<g>
					<path style="fill:#352C38;" d="M465.826,323.054c0,0,0.319-0.961,1.311-2.076c0.261-0.26,0.522-0.58,0.868-0.84
						c0.328-0.282,0.702-0.551,1.123-0.788c0.4-0.268,0.888-0.434,1.362-0.632c0.508-0.124,1.013-0.305,1.56-0.316
						c0.27-0.015,0.54-0.035,0.809-0.038c0.27,0.025,0.537,0.066,0.801,0.103c0.537,0.034,1.015,0.281,1.484,0.441
						c0.468,0.174,0.842,0.486,1.219,0.716c0.387,0.224,0.633,0.578,0.906,0.836c0.264,0.269,0.497,0.516,0.644,0.788
						c0.166,0.252,0.292,0.486,0.397,0.672c0.205,0.378,0.301,0.6,0.301,0.6s-0.234-0.106-0.604-0.303
						c-0.183-0.101-0.407-0.217-0.642-0.364c-0.228-0.159-0.532-0.265-0.828-0.412c-0.311-0.12-0.601-0.332-0.96-0.417
						c-0.351-0.093-0.686-0.273-1.06-0.332c-0.375-0.046-0.735-0.191-1.124-0.174c-0.191-0.011-0.383-0.017-0.574-0.04l-0.581,0.048
						c-0.391-0.015-0.774,0.133-1.165,0.174c-0.377,0.133-0.772,0.192-1.135,0.353c-0.372,0.129-0.733,0.273-1.073,0.433
						c-0.35,0.137-0.663,0.318-0.977,0.452c-0.303,0.16-0.581,0.307-0.827,0.437c-0.251,0.138-0.47,0.258-0.651,0.356
						C466.038,322.937,465.826,323.054,465.826,323.054z"/>
				</g>
			</g>
			<g>
				<path style="fill:#965450;" d="M459.859,299.969c0,0-10.622-5.114-15.736,7.081c-5.114,12.196-4.019,29.457-17.743,35.619
					c-15.54,6.977-9.795,23.392-9.795,23.392s-10.228-8.262-7.081-16.13c3.147-7.868,18.096-18.49,21.244-33.439
					C433.894,301.543,450.024,287.38,459.859,299.969z"/>
				<g>
					<path style="fill:#965450;" d="M459.837,300.185c0,0-0.234-0.082-0.813-0.201c-0.561-0.114-1.412-0.247-2.499-0.262
						c-1.082-0.005-2.413,0.096-3.833,0.567c-1.416,0.463-2.923,1.302-4.219,2.651c-1.293,1.346-2.378,3.15-3.148,5.244
						c-0.809,2.133-1.426,4.455-1.984,6.916c-1.126,4.902-1.919,10.326-3.849,15.479c-0.976,2.557-2.243,5.052-4.004,7.132
						c-1.729,2.102-3.906,3.745-6.203,4.892c-2.293,1.095-4.286,2.455-5.914,4.097c-0.795,0.828-1.482,1.714-2.065,2.626
						c-0.56,0.926-1.01,1.874-1.36,2.818c-0.677,1.9-0.921,3.759-0.943,5.399c-0.016,1.643,0.154,3.075,0.379,4.234
						c0.449,2.324,1.005,3.572,1.005,3.572s-0.577-1.237-1.065-3.56c-0.244-1.158-0.439-2.593-0.451-4.247
						c-0.002-1.652,0.211-3.529,0.844-5.478c0.331-0.967,0.766-1.945,1.314-2.905c0.571-0.946,1.252-1.87,2.046-2.74
						c1.599-1.709,3.682-3.196,5.937-4.34c2.207-1.172,4.257-2.806,5.866-4.863c1.638-2.036,2.802-4.464,3.683-6.973
						c1.707-5.068,2.315-10.448,3.284-15.454c0.477-2.501,1.039-4.95,1.804-7.193c0.757-2.294,1.898-4.382,3.366-6.014
						c1.472-1.632,3.257-2.742,4.942-3.369c1.692-0.639,3.266-0.823,4.541-0.87c1.281-0.035,2.283,0.079,2.967,0.187
						c0.669,0.105,1.083,0.223,1.083,0.223L459.837,300.185z"/>
				</g>
				<path style="fill:#965450;" d="M460.632,283.203l-0.773,16.766c0,0-20.457-9.835-27.932,29.899c0,0-31.567,31.434-24.067,15.934
					s-8.192-22.622,4.79-33.637c12.982-11.015,14.163-11.015,21.637-20.457C441.762,282.266,450.797,274.155,460.632,283.203z"/>
				<path style="fill:#965450;" d="M459.859,299.969c0,0,10.961-6.076,14.501,5.332c3.541,11.409,10.638,17.896,12.5,28.667
					c2.333,13.5-17.323,33.213-14.176,45.015c3.147,11.802,15.382,8.087,15.382,8.087s-11.247-2.598-9.673-10.466
					c1.574-7.868,29.254-27.301,28.467-37.136c-0.787-9.835-2.233-5.357-6.167-22.667c-3.934-17.31-22.681-32.44-41.171-26.145
					C449.036,281.218,459.859,299.969,459.859,299.969z"/>
				<g>
					<path style="fill:#965450;" d="M459.447,299.09c0,0,0.298-0.117,0.837-0.287c0.544-0.171,1.345-0.399,2.389-0.603
						c1.044-0.193,2.336-0.376,3.849-0.303c1.482,0.088,3.316,0.411,4.843,1.695c0.385,0.305,0.719,0.684,1.029,1.085
						c0.159,0.209,0.273,0.405,0.434,0.654c0.111,0.206,0.223,0.415,0.337,0.624c0.46,0.842,0.875,1.831,1.214,2.793
						c0.685,1.965,1.158,4.044,1.881,6.095c0.726,2.049,1.699,4.08,2.899,6.032c0.287,0.495,0.608,0.973,0.932,1.452
						c0.316,0.484,0.644,0.961,0.996,1.426c0.68,0.945,1.413,1.872,2.044,2.944c1.213,2.11,1.966,4.471,2.229,6.835
						c0.261,2.367,0.073,4.712-0.357,6.909c-0.885,4.406-2.659,8.214-4.27,11.363c-0.835,1.558-1.393,3.059-1.597,4.472
						c-0.221,1.407-0.149,2.667,0.018,3.678c0.166,1.015,0.417,1.789,0.612,2.305c0.197,0.516,0.339,0.776,0.339,0.776
						s-0.152-0.254-0.37-0.764c-0.216-0.509-0.498-1.277-0.706-2.295c-0.208-1.015-0.333-2.289-0.163-3.736
						c0.145-1.45,0.675-3.05,1.485-4.626c1.53-3.172,3.191-6.986,3.95-11.303c0.369-2.151,0.493-4.42,0.19-6.671
						c-0.303-2.25-1.076-4.452-2.252-6.416c-0.574-0.961-1.309-1.889-2.011-2.844c-0.362-0.471-0.701-0.957-1.03-1.45
						c-0.335-0.488-0.668-0.975-0.968-1.483c-1.249-1.996-2.279-4.102-3.047-6.219c-0.763-2.119-1.26-4.219-1.928-6.079
						c-0.345-0.946-0.698-1.782-1.158-2.612c-0.115-0.209-0.229-0.416-0.342-0.622c-0.1-0.14-0.22-0.347-0.342-0.502
						c-0.256-0.323-0.524-0.628-0.837-0.869c-1.226-1.014-2.778-1.336-4.123-1.422c-1.364-0.076-2.577,0.083-3.56,0.258
						c-0.985,0.185-1.748,0.396-2.26,0.553c-0.517,0.159-0.769,0.257-0.769,0.257L459.447,299.09z"/>
				</g>
				<path style="fill:#824846;" d="M481.36,315.635c0,0,5.667,14.167,3.5,24.333c0,0,4-9.5,2.833-18.167
					C486.527,313.135,481.36,315.635,481.36,315.635z"/>
			</g>
		</g>
	</g>
	<g>
		<g>
			<g>
				<path style="fill:#965450;" d="M355.811,414.272c-5.946-15.98-42.314-23.612-48.683-28.243
					c-8.176-5.946-5.574-25.642-5.574-25.642l-13.379,0.352l-13.379-0.352c0,0,2.601,19.696-5.574,25.642
					c-6.368,4.632-42.737,12.264-48.683,28.243c-5.946,15.98-8.176,30.102-8.176,30.102h75.068h1.486h75.068
					C363.987,444.373,361.757,430.251,355.811,414.272z"/>
				<path style="fill:#76413B;" d="M272.318,382.358c6.263-0.64,12.558-1.909,18.011-4.959c3.975-2.223,7.554-4.848,10.876-7.803
					c-0.197-5.061,0.349-9.21,0.349-9.21l-13.379,0.352l-13.379-0.352C274.797,360.386,276.648,374.404,272.318,382.358z"/>
			</g>
			<g>
				<path style="fill:#5D8584;" d="M356.866,414.05c-2.177-5.851-8.402-10.59-15.753-14.478
					c-13.129,8.96-31.732,14.562-52.38,14.562c-20.646,0-39.249-5.601-52.377-14.56c-7.351,3.887-13.579,8.625-15.756,14.475
					c-5.99,16.097-8.236,30.323-8.236,30.323h75.62h1.497h75.62C365.102,444.373,362.855,430.148,356.866,414.05z"/>
				<g>
					<defs>
						<path id="SVGID_00000013192411392686933650000015194896931977510790_" d="M356.866,414.05
							c-2.177-5.851-8.402-10.59-15.753-14.478c-13.129,8.96-31.732,14.562-52.38,14.562c-20.646,0-39.249-5.601-52.377-14.56
							c-7.351,3.887-13.579,8.625-15.756,14.475c-5.99,16.097-8.236,30.323-8.236,30.323h75.62h1.497h75.62
							C365.102,444.373,362.855,430.148,356.866,414.05z"/>
					</defs>
					<clipPath id="SVGID_00000065071763605354043130000014020618686656091550_">
						<use xlink:href="#SVGID_00000013192411392686933650000015194896931977510790_"  style="overflow:visible;"/>
					</clipPath>
					<g style="clip-path:url(#SVGID_00000065071763605354043130000014020618686656091550_);">
						
							<line style="fill:none;stroke:#FFFFFF;stroke-width:0.8855;stroke-miterlimit:10;" x1="214.36" y1="408.469" x2="361.693" y2="408.469"/>
						
							<line style="fill:none;stroke:#FFFFFF;stroke-width:0.8855;stroke-miterlimit:10;" x1="214.36" y1="439.135" x2="365.693" y2="439.135"/>
						
							<line style="fill:none;stroke:#FFFFFF;stroke-width:0.8855;stroke-miterlimit:10;" x1="207.693" y1="424.267" x2="371.027" y2="424.267"/>
					</g>
				</g>
			</g>
		</g>
		<g>
			<g>
				<path style="fill:#76413B;" d="M265.711,329.681c-2.161-6.703-7.277-5.151-7.756-4.99c-0.502,0.059-5.791,0.844-4.877,7.827
					c0.919,7.025,4.995,10.832,8.817,9.714C265.828,341.609,267.884,336.424,265.711,329.681z"/>
				<path style="fill:#76413B;" d="M309.969,329.681c2.161-6.703,7.277-5.151,7.756-4.99c0.502,0.059,5.791,0.844,4.877,7.827
					c-0.919,7.025-4.995,10.832-8.818,9.714C309.852,341.609,307.796,336.424,309.969,329.681z"/>
				<path style="fill:#965450;" d="M314.43,319.135c-2.678-29.387-25.019-27.741-27.126-27.52
					c-2.107-0.221-24.448-1.867-27.126,27.52c-2.694,29.563,10.474,48.87,27.126,47.808
					C303.956,368.005,317.124,348.698,314.43,319.135z"/>
			</g>
			<g>
				<g>
					<path style="fill:#76413B;" d="M290.497,329.169c0.16,0.472,0.281,0.95,0.413,1.426c0.137,0.475,0.247,0.955,0.36,1.434
						c0.219,0.958,0.407,1.922,0.578,2.887c0.159,0.967,0.322,1.934,0.439,2.907c0.133,0.971,0.233,1.947,0.317,2.924l0.022,0.253
						l-0.156,0.134c-0.589,0.504-1.19,0.996-1.799,1.479c-0.627,0.464-1.229,0.955-1.881,1.393c0.472-0.628,0.995-1.202,1.493-1.803
						c0.516-0.582,1.039-1.156,1.574-1.717l-0.135,0.387c-0.193-0.962-0.371-1.927-0.516-2.896c-0.16-0.967-0.275-1.94-0.393-2.914
						c-0.107-0.975-0.196-1.952-0.254-2.933c-0.026-0.491-0.055-0.982-0.056-1.477C290.493,330.16,290.476,329.667,290.497,329.169z
						"/>
				</g>
				<path style="fill:#FFFFFF;" d="M274.369,348.332l26.513-0.278C300.882,348.054,290.279,358.488,274.369,348.332z"/>
				<g>
					<path style="fill:#76413B;" d="M281.168,353.657c0,0,0.284,0.061,0.77,0.194c0.486,0.113,1.175,0.385,2.01,0.512
						c0.416,0.073,0.862,0.152,1.326,0.25c0.457,0.126,0.98,0.086,1.492,0.159c0.518,0.046,1.051,0.117,1.595,0.07
						c0.542-0.022,1.095-0.019,1.643-0.059c0.543-0.086,1.087-0.172,1.622-0.257c0.545-0.048,1.036-0.278,1.538-0.402
						c0.492-0.158,0.995-0.252,1.415-0.483c0.432-0.202,0.85-0.381,1.239-0.546c0.401-0.146,0.714-0.374,1.016-0.542
						c0.299-0.176,0.559-0.33,0.774-0.457c0.434-0.252,0.697-0.387,0.697-0.387s-0.195,0.208-0.562,0.557
						c-0.186,0.174-0.411,0.385-0.67,0.627c-0.264,0.238-0.54,0.546-0.928,0.752c-0.369,0.236-0.774,0.491-1.211,0.748
						c-0.421,0.294-0.93,0.463-1.45,0.659c-0.26,0.098-0.525,0.197-0.793,0.297l-0.406,0.15l-0.429,0.079
						c-0.576,0.104-1.16,0.209-1.745,0.315c-0.592,0.031-1.186,0.017-1.769,0.025c-0.586,0.041-1.149-0.094-1.695-0.173
						c-0.544-0.104-1.076-0.136-1.558-0.322c-0.487-0.153-0.94-0.312-1.354-0.458c-0.425-0.124-0.772-0.312-1.078-0.484
						c-0.309-0.165-0.579-0.31-0.801-0.429C281.415,353.809,281.168,353.657,281.168,353.657z"/>
				</g>
				<g>
					<path style="fill:#352C38;" d="M273.405,329.612c0,2.213,0.822,4.008,1.835,4.008c1.013,0,1.835-1.794,1.835-4.008
						c0-2.213-0.822-4.008-1.835-4.008C274.226,325.604,273.405,327.399,273.405,329.612z"/>
					<path style="fill:#352C38;" d="M298.619,329.612c0,2.213,0.822,4.008,1.835,4.008c1.013,0,1.835-1.794,1.835-4.008
						c0-2.213-0.821-4.008-1.835-4.008C299.44,325.604,298.619,327.399,298.619,329.612z"/>
				</g>
				<g>
					<path style="fill:#352C38;" d="M268.901,323.054c0,0,0.319-0.961,1.311-2.076c0.261-0.26,0.522-0.58,0.868-0.84
						c0.328-0.282,0.702-0.551,1.123-0.788c0.4-0.268,0.888-0.434,1.362-0.632c0.508-0.124,1.013-0.305,1.56-0.316
						c0.27-0.015,0.54-0.035,0.809-0.038c0.27,0.025,0.537,0.066,0.801,0.103c0.537,0.034,1.015,0.281,1.484,0.441
						c0.468,0.174,0.842,0.486,1.219,0.716c0.387,0.224,0.633,0.578,0.906,0.836c0.264,0.269,0.497,0.516,0.644,0.788
						c0.166,0.252,0.292,0.486,0.397,0.672c0.206,0.378,0.301,0.6,0.301,0.6s-0.234-0.106-0.604-0.303
						c-0.183-0.101-0.407-0.217-0.642-0.364c-0.228-0.159-0.532-0.265-0.828-0.412c-0.311-0.12-0.601-0.332-0.96-0.417
						c-0.351-0.093-0.686-0.273-1.06-0.332c-0.375-0.046-0.735-0.191-1.124-0.174c-0.191-0.011-0.383-0.017-0.574-0.04l-0.581,0.048
						c-0.391-0.015-0.774,0.133-1.165,0.174c-0.377,0.133-0.772,0.192-1.135,0.353c-0.372,0.129-0.733,0.273-1.073,0.433
						c-0.35,0.137-0.663,0.318-0.977,0.452c-0.303,0.16-0.581,0.307-0.827,0.437c-0.251,0.138-0.47,0.258-0.65,0.356
						C269.113,322.937,268.901,323.054,268.901,323.054z"/>
				</g>
				<g>
					<path style="fill:#352C38;" d="M294.292,323.054c0,0,0.318-0.961,1.311-2.076c0.261-0.26,0.522-0.58,0.867-0.84
						c0.328-0.282,0.702-0.551,1.123-0.788c0.4-0.268,0.888-0.434,1.362-0.632c0.508-0.124,1.013-0.305,1.56-0.316
						c0.27-0.015,0.54-0.035,0.809-0.038c0.27,0.025,0.537,0.066,0.801,0.103c0.537,0.034,1.015,0.281,1.484,0.441
						c0.468,0.174,0.842,0.486,1.219,0.716c0.387,0.224,0.633,0.578,0.906,0.836c0.264,0.269,0.497,0.516,0.644,0.788
						c0.166,0.252,0.292,0.486,0.397,0.672c0.205,0.378,0.301,0.6,0.301,0.6s-0.234-0.106-0.604-0.303
						c-0.183-0.101-0.407-0.217-0.642-0.364c-0.228-0.159-0.532-0.265-0.828-0.412c-0.312-0.12-0.601-0.332-0.96-0.417
						c-0.351-0.093-0.686-0.273-1.06-0.332c-0.375-0.046-0.735-0.191-1.124-0.174c-0.191-0.011-0.383-0.017-0.574-0.04l-0.581,0.048
						c-0.391-0.015-0.774,0.133-1.165,0.174c-0.377,0.133-0.772,0.192-1.135,0.353c-0.372,0.129-0.733,0.273-1.073,0.433
						c-0.35,0.137-0.663,0.318-0.977,0.452c-0.303,0.16-0.581,0.307-0.827,0.437c-0.251,0.138-0.47,0.258-0.651,0.356
						C294.505,322.937,294.292,323.054,294.292,323.054z"/>
				</g>
			</g>
			<g>
				<g>
					<path style="fill:#352C38;" d="M274.366,286.267c0,0-16.326-5.597-13.527-13.061c2.799-7.463,15.393,2.799,15.393,2.799
						s-20.99-18.191-10.728-23.322c10.262-5.131,21.923,20.057,21.923,20.057s-20.524-25.188-1.866-28.453
						c18.658-3.265,5.131,33.584,5.131,33.584s6.53-26.121,17.259-22.39c14.221,4.946-11.661,25.655-11.661,25.655
						s15.859-13.527,19.124-10.728c3.265,2.799-4.531,9.857-13.061,15.859C289.758,295.129,289.758,294.663,274.366,286.267z"/>
					<ellipse style="fill:#FFA65B;" cx="287.36" cy="288.801" rx="13" ry="8.5"/>
				</g>
				<g>
					<path style="fill:#352C38;" d="M286.739,300.696c0,0,0.121,12.106-24.379,19.106c0,0,1.5,18.5-2,17.5
						s-19.277-53.284,26.763-51.67L286.739,300.696z"/>
					<path style="fill:#352C38;" d="M286.739,300.696c0,0,0.406,12.106,24.906,19.106c0,0-1.5,18.5,2,17.5
						s18.827-52.439-26.521-51.67L286.739,300.696z"/>
					<path style="fill:#352C38;" d="M294.273,311.643c-7.585-9.031-8.663-15.185-5.518-25.187c-0.32-0.053-0.628-0.123-0.916-0.219
						c-3.388,8.355-6.098,22.352,8.246,31.022C296.086,317.258,303.512,322.642,294.273,311.643z"/>
					<path style="fill:#352C38;" d="M287.86,310.801c-3.631-8.943-2.919-14.006,2.049-21.002c-0.236-0.122-0.458-0.254-0.658-0.402
						c-4.743,5.652-10.38,15.868-1.395,26.233C287.857,315.63,292.282,321.693,287.86,310.801z"/>
				</g>
			</g>
		</g>
	</g>
	<g>
		<g>
			<g>
				<path style="fill:#EDCFB7;" d="M108.693,376.468c0,0-7.667,2-13.333-2l1,2.667c0,0-12-5.333-13-27c-1-21.667,7-21.333,7-21.333
					S112.36,358.801,108.693,376.468z"/>
				<path style="fill:#EDCFB7;" d="M159.36,342.801c0,0,4.5,19-12.5,27v-6.5c0,0-4,12-21,14s-8.5-23.5-8.5-23.5l8.5-22l33.5,9"/>
			</g>
			<g>
				<path style="fill:#F19C7C;" d="M184.277,414.272c-5.946-15.98-42.314-23.612-48.683-28.243
					c-8.176-5.946-5.574-25.642-5.574-25.642l-13.379,0.352l-13.378-0.352c0,0,2.601,19.696-5.574,25.642
					c-6.368,4.632-42.737,12.264-48.683,28.243c-5.946,15.98-8.176,30.102-8.176,30.102h75.068h1.486h75.068
					C192.453,444.373,190.223,430.251,184.277,414.272z"/>
				<path style="fill:#D88971;" d="M100.784,382.358c6.263-0.64,12.558-1.909,18.011-4.959c3.975-2.223,7.554-4.848,10.876-7.803
					c-0.197-5.061,0.349-9.21,0.349-9.21l-13.379,0.352l-13.378-0.352C103.263,360.386,105.114,374.404,100.784,382.358z"/>
			</g>
			<g>
				<path style="fill:#765E69;" d="M185.332,414.05c-5.402-14.517-35.714-22.193-46.322-26.982c0.103-0.057,0.174-0.096,0.174-0.096
					c-4.641-2.552-5.801-9.282-5.801-9.282l-33.647,1.624c-1.16,5.105-6.247,8.406-6.247,8.406c0.052,0.033,0.104,0.059,0.156,0.092
					c-11.849,4.834-39.449,12.45-44.579,26.238c-5.99,16.097-8.236,30.323-8.236,30.323h75.62h1.497h75.62
					C193.568,444.373,191.322,430.148,185.332,414.05z"/>
				<g>
					<defs>
						<path id="SVGID_00000035516901872831206300000013885956302547816585_" d="M185.332,414.05
							c-5.402-14.517-35.714-22.193-46.322-26.982c0.103-0.057,0.174-0.096,0.174-0.096c-4.641-2.552-5.801-9.282-5.801-9.282
							l-33.647,1.624c-1.16,5.105-6.247,8.406-6.247,8.406c0.052,0.033,0.104,0.059,0.156,0.092
							c-11.849,4.834-39.449,12.45-44.579,26.238c-5.99,16.097-8.236,30.323-8.236,30.323h75.62h1.497h75.62
							C193.568,444.373,191.322,430.148,185.332,414.05z"/>
					</defs>
					<clipPath id="SVGID_00000085938692418680692850000000008523133584980610_">
						<use xlink:href="#SVGID_00000035516901872831206300000013885956302547816585_"  style="overflow:visible;"/>
					</clipPath>
					<g style="clip-path:url(#SVGID_00000085938692418680692850000000008523133584980610_);">
						<g>
							<g>
								<g>
									<path style="fill:#FFA65B;" d="M155.043,382.588c1.329,1.281,2.657,2.563,3.986,3.844c0.282,0.272,1.032,0.045,1.272-0.187
										c1.594-1.538,3.189-3.075,4.783-4.613c0.601-0.579-0.857-0.478-1.167-0.18c-1.594,1.538-3.188,3.075-4.783,4.613
										c0.424-0.063,0.848-0.125,1.272-0.187c-1.329-1.281-2.657-2.563-3.986-3.844
										C156.078,381.703,154.695,382.252,155.043,382.588L155.043,382.588z"/>
								</g>
							</g>
							<g>
								<g>
									<path style="fill:#FFA65B;" d="M138.133,382.588c1.328,1.281,2.657,2.563,3.986,3.844c0.282,0.272,1.032,0.045,1.272-0.187
										c1.594-1.538,3.189-3.075,4.783-4.613c0.601-0.579-0.857-0.478-1.167-0.18c-1.594,1.538-3.188,3.075-4.783,4.613
										c0.424-0.063,0.848-0.125,1.272-0.187c-1.329-1.281-2.657-2.563-3.986-3.844
										C139.168,381.703,137.784,382.252,138.133,382.588L138.133,382.588z"/>
								</g>
							</g>
							<g>
								<g>
									<path style="fill:#FFA65B;" d="M121.222,382.588c1.328,1.281,2.657,2.563,3.986,3.844c0.282,0.272,1.032,0.045,1.272-0.187
										c1.594-1.538,3.188-3.075,4.783-4.613c0.601-0.579-0.857-0.478-1.167-0.18c-1.594,1.538-3.188,3.075-4.783,4.613
										c0.424-0.063,0.848-0.125,1.272-0.187c-1.329-1.281-2.657-2.563-3.986-3.844
										C122.257,381.703,120.874,382.252,121.222,382.588L121.222,382.588z"/>
								</g>
							</g>
							<g>
								<g>
									<path style="fill:#FFA65B;" d="M104.312,382.588c1.328,1.281,2.657,2.563,3.986,3.844c0.282,0.272,1.032,0.045,1.272-0.187
										c1.594-1.538,3.188-3.075,4.783-4.613c0.601-0.579-0.857-0.478-1.167-0.18c-1.594,1.538-3.188,3.075-4.783,4.613
										c0.424-0.063,0.848-0.125,1.272-0.187c-1.329-1.281-2.657-2.563-3.986-3.844
										C105.347,381.703,103.964,382.252,104.312,382.588L104.312,382.588z"/>
								</g>
							</g>
							<g>
								<g>
									<path style="fill:#FFA65B;" d="M87.402,382.588c1.328,1.281,2.657,2.563,3.985,3.844c0.282,0.272,1.032,0.045,1.272-0.187
										c1.594-1.538,3.188-3.075,4.783-4.613c0.601-0.579-0.857-0.478-1.167-0.18c-1.594,1.538-3.188,3.075-4.783,4.613
										c0.424-0.063,0.848-0.125,1.272-0.187c-1.328-1.281-2.657-2.563-3.985-3.844C88.437,381.703,87.054,382.252,87.402,382.588
										L87.402,382.588z"/>
								</g>
							</g>
							<g>
								<g>
									<path style="fill:#FFA65B;" d="M70.492,382.588c1.329,1.281,2.657,2.563,3.986,3.844c0.282,0.272,1.032,0.045,1.272-0.187
										c1.594-1.538,3.188-3.075,4.783-4.613c0.601-0.579-0.857-0.478-1.167-0.18c-1.594,1.538-3.188,3.075-4.783,4.613
										c0.424-0.063,0.848-0.125,1.272-0.187c-1.329-1.281-2.657-2.563-3.986-3.844C71.527,381.703,70.143,382.252,70.492,382.588
										L70.492,382.588z"/>
								</g>
							</g>
							<g>
								<g>
									<path style="fill:#FFA65B;" d="M53.582,382.588c1.328,1.281,2.657,2.563,3.986,3.844c0.282,0.272,1.032,0.045,1.272-0.187
										c1.594-1.538,3.188-3.075,4.783-4.613c0.601-0.579-0.858-0.478-1.167-0.18c-1.594,1.538-3.188,3.075-4.783,4.613
										c0.424-0.063,0.848-0.125,1.272-0.187c-1.328-1.281-2.657-2.563-3.986-3.844C54.617,381.703,53.233,382.252,53.582,382.588
										L53.582,382.588z"/>
								</g>
							</g>
							<g>
								<g>
									<path style="fill:#FFA65B;" d="M36.671,382.588c1.329,1.281,2.657,2.563,3.986,3.844c0.282,0.272,1.032,0.045,1.272-0.187
										c1.594-1.538,3.188-3.075,4.783-4.613c0.601-0.579-0.857-0.478-1.167-0.18c-1.594,1.538-3.188,3.075-4.783,4.613
										c0.424-0.063,0.848-0.125,1.272-0.187c-1.329-1.281-2.657-2.563-3.986-3.844C37.706,381.703,36.323,382.252,36.671,382.588
										L36.671,382.588z"/>
								</g>
							</g>
							<g>
								<g>
									<path style="fill:#FFA65B;" d="M171.953,382.588c1.329,1.281,2.657,2.563,3.986,3.844c0.282,0.272,1.032,0.045,1.272-0.187
										c1.594-1.538,3.188-3.075,4.783-4.613c0.601-0.579-0.857-0.478-1.167-0.18c-1.594,1.538-3.188,3.075-4.783,4.613
										c0.424-0.063,0.848-0.125,1.272-0.187c-1.328-1.281-2.657-2.563-3.986-3.844
										C172.988,381.703,171.605,382.252,171.953,382.588L171.953,382.588z"/>
								</g>
							</g>
						</g>
						<g>
							<g>
								<g>
									<path style="fill:#FFA65B;" d="M155.043,382.588c1.329,1.281,2.657,2.563,3.986,3.844c0.282,0.272,1.032,0.045,1.272-0.187
										c1.594-1.538,3.189-3.075,4.783-4.613c0.601-0.579-0.857-0.478-1.167-0.18c-1.594,1.538-3.188,3.075-4.783,4.613
										c0.424-0.063,0.848-0.125,1.272-0.187c-1.329-1.281-2.657-2.563-3.986-3.844
										C156.078,381.703,154.695,382.252,155.043,382.588L155.043,382.588z"/>
								</g>
							</g>
							<g>
								<g>
									<path style="fill:#FFA65B;" d="M138.133,382.588c1.328,1.281,2.657,2.563,3.986,3.844c0.282,0.272,1.032,0.045,1.272-0.187
										c1.594-1.538,3.189-3.075,4.783-4.613c0.601-0.579-0.857-0.478-1.167-0.18c-1.594,1.538-3.188,3.075-4.783,4.613
										c0.424-0.063,0.848-0.125,1.272-0.187c-1.329-1.281-2.657-2.563-3.986-3.844
										C139.168,381.703,137.784,382.252,138.133,382.588L138.133,382.588z"/>
								</g>
							</g>
							<g>
								<g>
									<path style="fill:#FFA65B;" d="M121.222,382.588c1.328,1.281,2.657,2.563,3.986,3.844c0.282,0.272,1.032,0.045,1.272-0.187
										c1.594-1.538,3.188-3.075,4.783-4.613c0.601-0.579-0.857-0.478-1.167-0.18c-1.594,1.538-3.188,3.075-4.783,4.613
										c0.424-0.063,0.848-0.125,1.272-0.187c-1.329-1.281-2.657-2.563-3.986-3.844
										C122.257,381.703,120.874,382.252,121.222,382.588L121.222,382.588z"/>
								</g>
							</g>
							<g>
								<g>
									<path style="fill:#FFA65B;" d="M104.312,382.588c1.328,1.281,2.657,2.563,3.986,3.844c0.282,0.272,1.032,0.045,1.272-0.187
										c1.594-1.538,3.188-3.075,4.783-4.613c0.601-0.579-0.857-0.478-1.167-0.18c-1.594,1.538-3.188,3.075-4.783,4.613
										c0.424-0.063,0.848-0.125,1.272-0.187c-1.329-1.281-2.657-2.563-3.986-3.844
										C105.347,381.703,103.964,382.252,104.312,382.588L104.312,382.588z"/>
								</g>
							</g>
							<g>
								<g>
									<path style="fill:#FFA65B;" d="M87.402,382.588c1.328,1.281,2.657,2.563,3.985,3.844c0.282,0.272,1.032,0.045,1.272-0.187
										c1.594-1.538,3.188-3.075,4.783-4.613c0.601-0.579-0.857-0.478-1.167-0.18c-1.594,1.538-3.188,3.075-4.783,4.613
										c0.424-0.063,0.848-0.125,1.272-0.187c-1.328-1.281-2.657-2.563-3.985-3.844C88.437,381.703,87.054,382.252,87.402,382.588
										L87.402,382.588z"/>
								</g>
							</g>
							<g>
								<g>
									<path style="fill:#FFA65B;" d="M70.492,382.588c1.329,1.281,2.657,2.563,3.986,3.844c0.282,0.272,1.032,0.045,1.272-0.187
										c1.594-1.538,3.188-3.075,4.783-4.613c0.601-0.579-0.857-0.478-1.167-0.18c-1.594,1.538-3.188,3.075-4.783,4.613
										c0.424-0.063,0.848-0.125,1.272-0.187c-1.329-1.281-2.657-2.563-3.986-3.844C71.527,381.703,70.143,382.252,70.492,382.588
										L70.492,382.588z"/>
								</g>
							</g>
							<g>
								<g>
									<path style="fill:#FFA65B;" d="M53.582,382.588c1.328,1.281,2.657,2.563,3.986,3.844c0.282,0.272,1.032,0.045,1.272-0.187
										c1.594-1.538,3.188-3.075,4.783-4.613c0.601-0.579-0.858-0.478-1.167-0.18c-1.594,1.538-3.188,3.075-4.783,4.613
										c0.424-0.063,0.848-0.125,1.272-0.187c-1.328-1.281-2.657-2.563-3.986-3.844C54.617,381.703,53.233,382.252,53.582,382.588
										L53.582,382.588z"/>
								</g>
							</g>
							<g>
								<g>
									<path style="fill:#FFA65B;" d="M36.671,382.588c1.329,1.281,2.657,2.563,3.986,3.844c0.282,0.272,1.032,0.045,1.272-0.187
										c1.594-1.538,3.188-3.075,4.783-4.613c0.601-0.579-0.857-0.478-1.167-0.18c-1.594,1.538-3.188,3.075-4.783,4.613
										c0.424-0.063,0.848-0.125,1.272-0.187c-1.329-1.281-2.657-2.563-3.986-3.844C37.706,381.703,36.323,382.252,36.671,382.588
										L36.671,382.588z"/>
								</g>
							</g>
							<g>
								<g>
									<path style="fill:#FFA65B;" d="M171.953,382.588c1.329,1.281,2.657,2.563,3.986,3.844c0.282,0.272,1.032,0.045,1.272-0.187
										c1.594-1.538,3.188-3.075,4.783-4.613c0.601-0.579-0.857-0.478-1.167-0.18c-1.594,1.538-3.188,3.075-4.783,4.613
										c0.424-0.063,0.848-0.125,1.272-0.187c-1.328-1.281-2.657-2.563-3.986-3.844
										C172.988,381.703,171.605,382.252,171.953,382.588L171.953,382.588z"/>
								</g>
							</g>
						</g>
						<g>
							<g>
								<g>
									<path style="fill:#FFA65B;" d="M155.043,439.175c1.329,1.281,2.657,2.563,3.986,3.844c0.282,0.272,1.032,0.045,1.272-0.187
										c1.594-1.538,3.189-3.075,4.783-4.613c0.601-0.579-0.857-0.478-1.167-0.18c-1.594,1.538-3.188,3.075-4.783,4.613
										c0.424-0.062,0.848-0.125,1.272-0.187c-1.329-1.281-2.657-2.563-3.986-3.844
										C156.078,438.29,154.695,438.839,155.043,439.175L155.043,439.175z"/>
								</g>
							</g>
							<g>
								<g>
									<path style="fill:#FFA65B;" d="M138.133,439.175c1.328,1.281,2.657,2.563,3.986,3.844c0.282,0.272,1.032,0.045,1.272-0.187
										c1.594-1.538,3.189-3.075,4.783-4.613c0.601-0.579-0.857-0.478-1.167-0.18c-1.594,1.538-3.188,3.075-4.783,4.613
										c0.424-0.062,0.848-0.125,1.272-0.187c-1.329-1.281-2.657-2.563-3.986-3.844
										C139.168,438.29,137.784,438.839,138.133,439.175L138.133,439.175z"/>
								</g>
							</g>
							<g>
								<g>
									<path style="fill:#FFA65B;" d="M121.222,439.175c1.328,1.281,2.657,2.563,3.986,3.844c0.282,0.272,1.032,0.045,1.272-0.187
										c1.594-1.538,3.188-3.075,4.783-4.613c0.601-0.579-0.857-0.478-1.167-0.18c-1.594,1.538-3.188,3.075-4.783,4.613
										c0.424-0.062,0.848-0.125,1.272-0.187c-1.329-1.281-2.657-2.563-3.986-3.844
										C122.257,438.29,120.874,438.839,121.222,439.175L121.222,439.175z"/>
								</g>
							</g>
							<g>
								<g>
									<path style="fill:#FFA65B;" d="M104.312,439.175c1.328,1.281,2.657,2.563,3.986,3.844c0.282,0.272,1.032,0.045,1.272-0.187
										c1.594-1.538,3.188-3.075,4.783-4.613c0.601-0.579-0.857-0.478-1.167-0.18c-1.594,1.538-3.188,3.075-4.783,4.613
										c0.424-0.062,0.848-0.125,1.272-0.187c-1.329-1.281-2.657-2.563-3.986-3.844
										C105.347,438.29,103.964,438.839,104.312,439.175L104.312,439.175z"/>
								</g>
							</g>
							<g>
								<g>
									<path style="fill:#FFA65B;" d="M87.402,439.175c1.328,1.281,2.657,2.563,3.985,3.844c0.282,0.272,1.032,0.045,1.272-0.187
										c1.594-1.538,3.188-3.075,4.783-4.613c0.601-0.579-0.857-0.478-1.167-0.18c-1.594,1.538-3.188,3.075-4.783,4.613
										c0.424-0.062,0.848-0.125,1.272-0.187c-1.328-1.281-2.657-2.563-3.985-3.844C88.437,438.29,87.054,438.839,87.402,439.175
										L87.402,439.175z"/>
								</g>
							</g>
							<g>
								<g>
									<path style="fill:#FFA65B;" d="M70.492,439.175c1.329,1.281,2.657,2.563,3.986,3.844c0.282,0.272,1.032,0.045,1.272-0.187
										c1.594-1.538,3.188-3.075,4.783-4.613c0.601-0.579-0.857-0.478-1.167-0.18c-1.594,1.538-3.188,3.075-4.783,4.613
										c0.424-0.062,0.848-0.125,1.272-0.187c-1.329-1.281-2.657-2.563-3.986-3.844C71.527,438.29,70.143,438.839,70.492,439.175
										L70.492,439.175z"/>
								</g>
							</g>
							<g>
								<g>
									<path style="fill:#FFA65B;" d="M53.582,439.175c1.328,1.281,2.657,2.563,3.986,3.844c0.282,0.272,1.032,0.045,1.272-0.187
										c1.594-1.538,3.188-3.075,4.783-4.613c0.601-0.579-0.858-0.478-1.167-0.18c-1.594,1.538-3.188,3.075-4.783,4.613
										c0.424-0.062,0.848-0.125,1.272-0.187c-1.328-1.281-2.657-2.563-3.986-3.844C54.617,438.29,53.233,438.839,53.582,439.175
										L53.582,439.175z"/>
								</g>
							</g>
							<g>
								<g>
									<path style="fill:#FFA65B;" d="M36.671,439.175c1.329,1.281,2.657,2.563,3.986,3.844c0.282,0.272,1.032,0.045,1.272-0.187
										c1.594-1.538,3.188-3.075,4.783-4.613c0.601-0.579-0.857-0.478-1.167-0.18c-1.594,1.538-3.188,3.075-4.783,4.613
										c0.424-0.062,0.848-0.125,1.272-0.187c-1.329-1.281-2.657-2.563-3.986-3.844C37.706,438.29,36.323,438.839,36.671,439.175
										L36.671,439.175z"/>
								</g>
							</g>
							<g>
								<g>
									<path style="fill:#FFA65B;" d="M171.953,439.175c1.329,1.281,2.657,2.563,3.986,3.844c0.282,0.272,1.032,0.045,1.272-0.187
										c1.594-1.538,3.188-3.075,4.783-4.613c0.601-0.579-0.857-0.478-1.167-0.18c-1.594,1.538-3.188,3.075-4.783,4.613
										c0.424-0.062,0.848-0.125,1.272-0.187c-1.328-1.281-2.657-2.563-3.986-3.844
										C172.988,438.29,171.605,438.839,171.953,439.175L171.953,439.175z"/>
								</g>
							</g>
						</g>
						<g>
							<g>
								<g>
									<path style="fill:#FFA65B;" d="M163.811,424.413c1.328,1.281,2.657,2.563,3.985,3.844c0.282,0.272,1.032,0.045,1.272-0.187
										c1.594-1.538,3.188-3.075,4.783-4.613c0.601-0.58-0.857-0.479-1.167-0.18c-1.594,1.538-3.189,3.075-4.783,4.613
										c0.424-0.062,0.848-0.125,1.272-0.187c-1.328-1.281-2.657-2.563-3.985-3.844
										C164.846,423.529,163.463,424.077,163.811,424.413L163.811,424.413z"/>
								</g>
							</g>
							<g>
								<g>
									<path style="fill:#FFA65B;" d="M146.901,424.413c1.328,1.281,2.657,2.563,3.986,3.844c0.282,0.272,1.032,0.045,1.272-0.187
										c1.594-1.538,3.188-3.075,4.783-4.613c0.601-0.58-0.858-0.479-1.167-0.18c-1.594,1.538-3.189,3.075-4.783,4.613
										c0.424-0.062,0.848-0.125,1.272-0.187c-1.328-1.281-2.657-2.563-3.985-3.844
										C147.936,423.529,146.553,424.077,146.901,424.413L146.901,424.413z"/>
								</g>
							</g>
							<g>
								<g>
									<path style="fill:#FFA65B;" d="M129.991,424.413c1.329,1.281,2.657,2.563,3.986,3.844c0.282,0.272,1.032,0.045,1.272-0.187
										c1.594-1.538,3.188-3.075,4.783-4.613c0.601-0.58-0.857-0.479-1.167-0.18c-1.594,1.538-3.188,3.075-4.783,4.613
										c0.424-0.062,0.848-0.125,1.272-0.187c-1.329-1.281-2.657-2.563-3.986-3.844
										C131.026,423.529,129.642,424.077,129.991,424.413L129.991,424.413z"/>
								</g>
							</g>
							<g>
								<g>
									<path style="fill:#FFA65B;" d="M113.08,424.413c1.329,1.281,2.657,2.563,3.986,3.844c0.282,0.272,1.032,0.045,1.272-0.187
										c1.594-1.538,3.188-3.075,4.783-4.613c0.601-0.58-0.857-0.479-1.167-0.18c-1.594,1.538-3.188,3.075-4.783,4.613
										c0.424-0.062,0.848-0.125,1.272-0.187c-1.328-1.281-2.657-2.563-3.986-3.844
										C114.116,423.529,112.732,424.077,113.08,424.413L113.08,424.413z"/>
								</g>
							</g>
							<g>
								<g>
									<path style="fill:#FFA65B;" d="M96.17,424.413c1.329,1.281,2.657,2.563,3.986,3.844c0.282,0.272,1.032,0.045,1.272-0.187
										c1.594-1.538,3.188-3.075,4.783-4.613c0.601-0.58-0.857-0.479-1.167-0.18c-1.594,1.538-3.188,3.075-4.783,4.613
										c0.424-0.062,0.848-0.125,1.272-0.187c-1.329-1.281-2.657-2.563-3.986-3.844C97.205,423.529,95.822,424.077,96.17,424.413
										L96.17,424.413z"/>
								</g>
							</g>
							<g>
								<g>
									<path style="fill:#FFA65B;" d="M79.26,424.413c1.329,1.281,2.657,2.563,3.986,3.844c0.282,0.272,1.032,0.045,1.272-0.187
										c1.594-1.538,3.188-3.075,4.783-4.613c0.601-0.58-0.857-0.479-1.167-0.18c-1.594,1.538-3.188,3.075-4.783,4.613
										c0.424-0.062,0.848-0.125,1.272-0.187c-1.329-1.281-2.657-2.563-3.986-3.844C80.295,423.529,78.912,424.077,79.26,424.413
										L79.26,424.413z"/>
								</g>
							</g>
							<g>
								<g>
									<path style="fill:#FFA65B;" d="M62.35,424.413c1.328,1.281,2.657,2.563,3.986,3.844c0.282,0.272,1.032,0.045,1.272-0.187
										c1.594-1.538,3.188-3.075,4.783-4.613c0.601-0.58-0.857-0.479-1.167-0.18c-1.594,1.538-3.188,3.075-4.783,4.613
										c0.424-0.062,0.848-0.125,1.272-0.187c-1.328-1.281-2.657-2.563-3.986-3.844C63.385,423.529,62.001,424.077,62.35,424.413
										L62.35,424.413z"/>
								</g>
							</g>
							<g>
								<g>
									<path style="fill:#FFA65B;" d="M45.439,424.413c1.329,1.281,2.657,2.563,3.986,3.844c0.282,0.272,1.032,0.045,1.272-0.187
										c1.594-1.538,3.188-3.075,4.783-4.613c0.601-0.58-0.857-0.479-1.167-0.18c-1.594,1.538-3.188,3.075-4.783,4.613
										c0.424-0.062,0.848-0.125,1.272-0.187c-1.329-1.281-2.657-2.563-3.986-3.844C46.475,423.529,45.091,424.077,45.439,424.413
										L45.439,424.413z"/>
								</g>
							</g>
							<g>
								<g>
									<path style="fill:#FFA65B;" d="M180.721,424.413c1.329,1.281,2.657,2.563,3.986,3.844c0.282,0.272,1.032,0.045,1.272-0.187
										c1.594-1.538,3.188-3.075,4.783-4.613c0.601-0.58-0.857-0.479-1.167-0.18c-1.594,1.538-3.189,3.075-4.783,4.613
										c0.424-0.062,0.848-0.125,1.272-0.187c-1.329-1.281-2.657-2.563-3.986-3.844
										C181.756,423.529,180.373,424.077,180.721,424.413L180.721,424.413z"/>
								</g>
							</g>
						</g>
						<g>
							<g>
								<g>
									<path style="fill:#FFA65B;" d="M155.043,410.881c1.329,1.281,2.657,2.563,3.986,3.844c0.282,0.272,1.032,0.045,1.272-0.187
										c1.594-1.538,3.189-3.075,4.783-4.613c0.601-0.579-0.857-0.478-1.167-0.18c-1.594,1.538-3.188,3.075-4.783,4.613
										c0.424-0.063,0.848-0.125,1.272-0.187c-1.329-1.281-2.657-2.563-3.986-3.844
										C156.078,409.997,154.695,410.546,155.043,410.881L155.043,410.881z"/>
								</g>
							</g>
							<g>
								<g>
									<path style="fill:#FFA65B;" d="M138.133,410.881c1.328,1.281,2.657,2.563,3.986,3.844c0.282,0.272,1.032,0.045,1.272-0.187
										c1.594-1.538,3.189-3.075,4.783-4.613c0.601-0.579-0.857-0.478-1.167-0.18c-1.594,1.538-3.188,3.075-4.783,4.613
										c0.424-0.063,0.848-0.125,1.272-0.187c-1.329-1.281-2.657-2.563-3.986-3.844
										C139.168,409.997,137.784,410.546,138.133,410.881L138.133,410.881z"/>
								</g>
							</g>
							<g>
								<g>
									<path style="fill:#FFA65B;" d="M121.222,410.881c1.328,1.281,2.657,2.563,3.986,3.844c0.282,0.272,1.032,0.045,1.272-0.187
										c1.594-1.538,3.188-3.075,4.783-4.613c0.601-0.579-0.857-0.478-1.167-0.18c-1.594,1.538-3.188,3.075-4.783,4.613
										c0.424-0.063,0.848-0.125,1.272-0.187c-1.329-1.281-2.657-2.563-3.986-3.844
										C122.257,409.997,120.874,410.546,121.222,410.881L121.222,410.881z"/>
								</g>
							</g>
							<g>
								<g>
									<path style="fill:#FFA65B;" d="M104.312,410.881c1.328,1.281,2.657,2.563,3.986,3.844c0.282,0.272,1.032,0.045,1.272-0.187
										c1.594-1.538,3.188-3.075,4.783-4.613c0.601-0.579-0.857-0.478-1.167-0.18c-1.594,1.538-3.188,3.075-4.783,4.613
										c0.424-0.063,0.848-0.125,1.272-0.187c-1.329-1.281-2.657-2.563-3.986-3.844
										C105.347,409.997,103.964,410.546,104.312,410.881L104.312,410.881z"/>
								</g>
							</g>
							<g>
								<g>
									<path style="fill:#FFA65B;" d="M87.402,410.881c1.328,1.281,2.657,2.563,3.985,3.844c0.282,0.272,1.032,0.045,1.272-0.187
										c1.594-1.538,3.188-3.075,4.783-4.613c0.601-0.579-0.857-0.478-1.167-0.18c-1.594,1.538-3.188,3.075-4.783,4.613
										c0.424-0.063,0.848-0.125,1.272-0.187c-1.328-1.281-2.657-2.563-3.985-3.844C88.437,409.997,87.054,410.546,87.402,410.881
										L87.402,410.881z"/>
								</g>
							</g>
							<g>
								<g>
									<path style="fill:#FFA65B;" d="M70.492,410.881c1.329,1.281,2.657,2.563,3.986,3.844c0.282,0.272,1.032,0.045,1.272-0.187
										c1.594-1.538,3.188-3.075,4.783-4.613c0.601-0.579-0.857-0.478-1.167-0.18c-1.594,1.538-3.188,3.075-4.783,4.613
										c0.424-0.063,0.848-0.125,1.272-0.187c-1.329-1.281-2.657-2.563-3.986-3.844C71.527,409.997,70.143,410.546,70.492,410.881
										L70.492,410.881z"/>
								</g>
							</g>
							<g>
								<g>
									<path style="fill:#FFA65B;" d="M53.582,410.881c1.328,1.281,2.657,2.563,3.986,3.844c0.282,0.272,1.032,0.045,1.272-0.187
										c1.594-1.538,3.188-3.075,4.783-4.613c0.601-0.579-0.858-0.478-1.167-0.18c-1.594,1.538-3.188,3.075-4.783,4.613
										c0.424-0.063,0.848-0.125,1.272-0.187c-1.328-1.281-2.657-2.563-3.986-3.844C54.617,409.997,53.233,410.546,53.582,410.881
										L53.582,410.881z"/>
								</g>
							</g>
							<g>
								<g>
									<path style="fill:#FFA65B;" d="M36.671,410.881c1.329,1.281,2.657,2.563,3.986,3.844c0.282,0.272,1.032,0.045,1.272-0.187
										c1.594-1.538,3.188-3.075,4.783-4.613c0.601-0.579-0.857-0.478-1.167-0.18c-1.594,1.538-3.188,3.075-4.783,4.613
										c0.424-0.063,0.848-0.125,1.272-0.187c-1.329-1.281-2.657-2.563-3.986-3.844C37.706,409.997,36.323,410.546,36.671,410.881
										L36.671,410.881z"/>
								</g>
							</g>
							<g>
								<g>
									<path style="fill:#FFA65B;" d="M171.953,410.881c1.329,1.281,2.657,2.563,3.986,3.844c0.282,0.272,1.032,0.045,1.272-0.187
										c1.594-1.538,3.188-3.075,4.783-4.613c0.601-0.579-0.857-0.478-1.167-0.18c-1.594,1.538-3.188,3.075-4.783,4.613
										c0.424-0.063,0.848-0.125,1.272-0.187c-1.328-1.281-2.657-2.563-3.986-3.844
										C172.988,409.997,171.605,410.546,171.953,410.881L171.953,410.881z"/>
								</g>
							</g>
						</g>
						<g>
							<g>
								<g>
									<path style="fill:#FFA65B;" d="M163.185,396.12c1.329,1.281,2.657,2.563,3.986,3.844c0.282,0.272,1.032,0.045,1.272-0.187
										c1.594-1.538,3.188-3.075,4.783-4.613c0.601-0.58-0.857-0.479-1.167-0.18c-1.594,1.538-3.189,3.075-4.783,4.613
										c0.424-0.062,0.848-0.125,1.272-0.187c-1.329-1.281-2.657-2.563-3.986-3.844
										C164.22,395.235,162.836,395.784,163.185,396.12L163.185,396.12z"/>
								</g>
							</g>
							<g>
								<g>
									<path style="fill:#FFA65B;" d="M146.275,396.12c1.328,1.281,2.657,2.563,3.985,3.844c0.282,0.272,1.032,0.045,1.272-0.187
										c1.594-1.538,3.188-3.075,4.783-4.613c0.601-0.58-0.857-0.479-1.167-0.18c-1.594,1.538-3.189,3.075-4.783,4.613
										c0.424-0.062,0.848-0.125,1.272-0.187c-1.328-1.281-2.657-2.563-3.986-3.844
										C147.31,395.235,145.926,395.784,146.275,396.12L146.275,396.12z"/>
								</g>
							</g>
							<g>
								<g>
									<path style="fill:#FFA65B;" d="M129.364,396.12c1.329,1.281,2.657,2.563,3.986,3.844c0.282,0.272,1.032,0.045,1.272-0.187
										c1.594-1.538,3.188-3.075,4.783-4.613c0.601-0.58-0.857-0.479-1.167-0.18c-1.594,1.538-3.189,3.075-4.783,4.613
										c0.424-0.062,0.848-0.125,1.272-0.187c-1.328-1.281-2.657-2.563-3.986-3.844
										C130.399,395.235,129.016,395.784,129.364,396.12L129.364,396.12z"/>
								</g>
							</g>
							<g>
								<g>
									<path style="fill:#FFA65B;" d="M112.454,396.12c1.329,1.281,2.657,2.563,3.986,3.844c0.282,0.272,1.032,0.045,1.272-0.187
										c1.594-1.538,3.188-3.075,4.783-4.613c0.601-0.58-0.857-0.479-1.167-0.18c-1.594,1.538-3.188,3.075-4.783,4.613
										c0.424-0.062,0.848-0.125,1.272-0.187c-1.328-1.281-2.657-2.563-3.986-3.844
										C113.489,395.235,112.106,395.784,112.454,396.12L112.454,396.12z"/>
								</g>
							</g>
							<g>
								<g>
									<path style="fill:#FFA65B;" d="M95.544,396.12c1.329,1.281,2.657,2.563,3.986,3.844c0.282,0.272,1.032,0.045,1.272-0.187
										c1.594-1.538,3.188-3.075,4.783-4.613c0.601-0.58-0.857-0.479-1.167-0.18c-1.594,1.538-3.188,3.075-4.783,4.613
										c0.424-0.062,0.848-0.125,1.272-0.187c-1.328-1.281-2.657-2.563-3.986-3.844C96.579,395.235,95.196,395.784,95.544,396.12
										L95.544,396.12z"/>
								</g>
							</g>
							<g>
								<g>
									<path style="fill:#FFA65B;" d="M78.634,396.12c1.329,1.281,2.657,2.563,3.986,3.844c0.282,0.272,1.032,0.045,1.272-0.187
										c1.594-1.538,3.188-3.075,4.783-4.613c0.601-0.58-0.857-0.479-1.167-0.18c-1.594,1.538-3.188,3.075-4.783,4.613
										c0.424-0.062,0.848-0.125,1.272-0.187c-1.329-1.281-2.657-2.563-3.986-3.844C79.669,395.235,78.285,395.784,78.634,396.12
										L78.634,396.12z"/>
								</g>
							</g>
							<g>
								<g>
									<path style="fill:#FFA65B;" d="M61.723,396.12c1.328,1.281,2.657,2.563,3.986,3.844c0.282,0.272,1.032,0.045,1.272-0.187
										c1.594-1.538,3.188-3.075,4.783-4.613c0.601-0.58-0.857-0.479-1.167-0.18c-1.594,1.538-3.188,3.075-4.783,4.613
										c0.424-0.062,0.848-0.125,1.272-0.187c-1.328-1.281-2.657-2.563-3.986-3.844C62.758,395.235,61.375,395.784,61.723,396.12
										L61.723,396.12z"/>
								</g>
							</g>
							<g>
								<g>
									<path style="fill:#FFA65B;" d="M44.813,396.12c1.328,1.281,2.657,2.563,3.986,3.844c0.282,0.272,1.032,0.045,1.272-0.187
										c1.594-1.538,3.189-3.075,4.783-4.613c0.601-0.58-0.857-0.479-1.167-0.18c-1.594,1.538-3.188,3.075-4.783,4.613
										c0.424-0.062,0.848-0.125,1.272-0.187c-1.329-1.281-2.657-2.563-3.986-3.844C45.848,395.235,44.465,395.784,44.813,396.12
										L44.813,396.12z"/>
								</g>
							</g>
							<g>
								<g>
									<path style="fill:#FFA65B;" d="M180.095,396.12c1.329,1.281,2.657,2.563,3.986,3.844c0.282,0.272,1.032,0.045,1.272-0.187
										c1.594-1.538,3.188-3.075,4.783-4.613c0.601-0.58-0.857-0.479-1.167-0.18c-1.594,1.538-3.188,3.075-4.783,4.613
										c0.424-0.062,0.848-0.125,1.272-0.187c-1.329-1.281-2.657-2.563-3.986-3.844
										C181.13,395.235,179.747,395.784,180.095,396.12L180.095,396.12z"/>
								</g>
							</g>
						</g>
					</g>
				</g>
			</g>
		</g>
		<g>
			<g>
				<path style="fill:#FDDEC0;" d="M106.693,292.135c0,0-16.833-15.333-28.333,5.167s3.5,53-8,67c0,0,12,13,16-7s5.5-52.5,5.5-52.5
					L106.693,292.135z"/>
				<g>
					<path style="fill:#FDDEC0;" d="M103.794,294.295c0,0-0.251-0.302-0.768-0.821c-0.515-0.52-1.306-1.249-2.38-2.079
						c-1.073-0.826-2.465-1.734-4.192-2.429c-1.724-0.665-3.823-1.108-6.022-0.725c-2.2,0.345-4.393,1.54-6.299,3.276
						c-1.923,1.712-3.607,3.988-5.06,6.397c-0.348,0.639-0.746,1.285-1.062,1.932c-0.293,0.653-0.624,1.279-0.894,1.961
						c-0.553,1.36-1.04,2.766-1.453,4.212c-0.821,2.894-1.327,5.936-1.63,9.005c-0.324,3.068-0.454,6.169-0.492,9.229
						c-0.027,3.061-0.024,6.085,0.009,9.018c0.059,5.863,0.03,11.391-0.583,16.1c-0.29,2.353-0.722,4.498-1.313,6.341
						c-0.579,1.842-1.235,3.404-1.942,4.596c-0.173,0.299-0.327,0.588-0.49,0.849c-0.18,0.25-0.349,0.484-0.506,0.702
						c-0.304,0.442-0.584,0.799-0.843,1.064c-0.491,0.547-0.752,0.839-0.752,0.839s0.232-0.315,0.667-0.906
						c0.23-0.285,0.472-0.665,0.729-1.128c0.133-0.228,0.277-0.472,0.43-0.733c0.141-0.267,0.271-0.562,0.42-0.867
						c0.606-1.212,1.135-2.78,1.568-4.61c0.441-1.831,0.709-3.948,0.89-6.262c0.17-2.317,0.21-4.841,0.191-7.515
						c-0.025-2.675-0.142-5.501-0.226-8.433c-0.084-2.932-0.206-5.971-0.18-9.07c0.017-3.098,0.12-6.259,0.435-9.417
						c0.336-3.154,0.882-6.306,1.765-9.334c0.436-1.515,0.98-2.989,1.601-4.411c0.303-0.715,0.686-1.412,1.023-2.108
						c0.355-0.683,0.749-1.289,1.117-1.93c1.615-2.582,3.448-4.844,5.608-6.644c2.116-1.811,4.643-3.032,7.116-3.284
						c2.477-0.315,4.724,0.35,6.475,1.179c1.76,0.86,3.111,1.892,4.142,2.809c1.04,0.911,1.742,1.742,2.214,2.305
						C103.574,293.971,103.794,294.295,103.794,294.295z"/>
				</g>
			</g>
			<g>
				<path style="fill:#D88971;" d="M92.36,328.398c-2.161-6.703-7.277-5.151-7.756-4.99c-0.502,0.059-5.791,0.844-4.877,7.827
					c0.919,7.025,4.995,10.832,8.817,9.714C92.477,340.326,94.534,335.142,92.36,328.398z"/>
				<path style="fill:#D88971;" d="M138.436,329.681c2.161-6.703,7.277-5.151,7.756-4.99c0.502,0.059,5.791,0.844,4.877,7.827
					c-0.919,7.025-4.995,10.832-8.818,9.714C138.318,341.609,136.262,336.424,138.436,329.681z"/>
				<path style="fill:#F19C7C;" d="M142.896,319.135c-2.678-29.387-25.019-27.741-27.126-27.52
					c-2.107-0.221-24.448-1.867-27.126,27.52c-2.694,29.563,10.474,48.87,27.126,47.808
					C132.423,368.005,145.59,348.698,142.896,319.135z"/>
			</g>
			<g>
				<g>
					<path style="fill:#B26E59;" d="M118.963,329.169c0.16,0.472,0.281,0.95,0.413,1.426c0.137,0.475,0.247,0.955,0.36,1.434
						c0.219,0.958,0.407,1.922,0.578,2.887c0.159,0.967,0.322,1.934,0.439,2.907c0.133,0.971,0.233,1.947,0.317,2.924l0.022,0.253
						l-0.157,0.134c-0.589,0.504-1.19,0.996-1.799,1.479c-0.627,0.464-1.229,0.955-1.881,1.393c0.472-0.628,0.995-1.202,1.493-1.803
						c0.516-0.582,1.039-1.156,1.574-1.717l-0.135,0.387c-0.193-0.962-0.371-1.927-0.515-2.896c-0.16-0.967-0.275-1.94-0.393-2.914
						c-0.107-0.975-0.196-1.952-0.254-2.933c-0.026-0.491-0.055-0.982-0.056-1.477C118.959,330.16,118.942,329.667,118.963,329.169z
						"/>
				</g>
				<path style="fill:#FFFFFF;" d="M102.835,348.332l26.513-0.278C129.348,348.054,118.745,358.488,102.835,348.332z"/>
				<g>
					<path style="fill:#B26E59;" d="M109.634,353.657c0,0,0.284,0.061,0.77,0.194c0.485,0.113,1.175,0.385,2.01,0.512
						c0.416,0.073,0.862,0.152,1.326,0.25c0.457,0.126,0.98,0.086,1.492,0.159c0.518,0.046,1.051,0.117,1.595,0.07
						c0.543-0.022,1.095-0.019,1.643-0.059c0.543-0.086,1.087-0.172,1.622-0.257c0.545-0.048,1.036-0.278,1.538-0.402
						c0.492-0.158,0.995-0.252,1.415-0.483c0.432-0.202,0.85-0.381,1.239-0.546c0.401-0.146,0.714-0.374,1.016-0.542
						c0.299-0.176,0.559-0.33,0.774-0.457c0.435-0.252,0.697-0.387,0.697-0.387s-0.195,0.208-0.562,0.557
						c-0.186,0.174-0.411,0.385-0.67,0.627c-0.264,0.238-0.54,0.546-0.928,0.752c-0.369,0.236-0.774,0.491-1.211,0.748
						c-0.421,0.294-0.93,0.463-1.45,0.659c-0.261,0.098-0.525,0.197-0.793,0.297l-0.406,0.15l-0.429,0.079
						c-0.575,0.104-1.16,0.209-1.744,0.315c-0.591,0.031-1.186,0.017-1.769,0.025c-0.586,0.041-1.149-0.094-1.696-0.173
						c-0.544-0.104-1.076-0.136-1.558-0.322c-0.487-0.153-0.939-0.312-1.353-0.458c-0.425-0.124-0.772-0.312-1.078-0.484
						c-0.309-0.165-0.579-0.31-0.801-0.429C109.881,353.809,109.634,353.657,109.634,353.657z"/>
				</g>
				<g>
					<path style="fill:#352C38;" d="M101.871,329.612c0,2.213,0.821,4.008,1.835,4.008c1.013,0,1.835-1.794,1.835-4.008
						c0-2.213-0.822-4.008-1.835-4.008C102.692,325.604,101.871,327.399,101.871,329.612z"/>
					<path style="fill:#352C38;" d="M127.085,329.612c0,2.213,0.822,4.008,1.835,4.008c1.013,0,1.835-1.794,1.835-4.008
						c0-2.213-0.821-4.008-1.835-4.008C127.906,325.604,127.085,327.399,127.085,329.612z"/>
				</g>
				<g>
					<path style="fill:#352C38;" d="M97.367,323.054c0,0,0.319-0.961,1.311-2.076c0.261-0.26,0.522-0.58,0.868-0.84
						c0.328-0.282,0.702-0.551,1.123-0.788c0.4-0.268,0.888-0.434,1.362-0.632c0.508-0.124,1.013-0.305,1.56-0.316
						c0.27-0.015,0.54-0.035,0.809-0.038c0.27,0.025,0.537,0.066,0.801,0.103c0.537,0.034,1.015,0.281,1.484,0.441
						c0.468,0.174,0.842,0.486,1.218,0.716c0.387,0.224,0.633,0.578,0.906,0.836c0.264,0.269,0.497,0.516,0.644,0.788
						c0.166,0.252,0.292,0.486,0.397,0.672c0.206,0.378,0.301,0.6,0.301,0.6s-0.234-0.106-0.604-0.303
						c-0.183-0.101-0.407-0.217-0.642-0.364c-0.228-0.159-0.532-0.265-0.828-0.412c-0.311-0.12-0.601-0.332-0.96-0.417
						c-0.351-0.093-0.686-0.273-1.06-0.332c-0.375-0.046-0.735-0.191-1.124-0.174c-0.191-0.011-0.383-0.017-0.574-0.04l-0.581,0.048
						c-0.391-0.015-0.774,0.133-1.165,0.174c-0.377,0.133-0.772,0.192-1.135,0.353c-0.372,0.129-0.733,0.273-1.073,0.433
						c-0.35,0.137-0.663,0.318-0.977,0.452c-0.303,0.16-0.581,0.307-0.827,0.437c-0.251,0.138-0.47,0.258-0.651,0.356
						C97.579,322.937,97.367,323.054,97.367,323.054z"/>
				</g>
				<g>
					<path style="fill:#352C38;" d="M122.758,323.054c0,0,0.319-0.961,1.311-2.076c0.261-0.26,0.522-0.58,0.868-0.84
						c0.328-0.282,0.702-0.551,1.123-0.788c0.4-0.268,0.888-0.434,1.362-0.632c0.508-0.124,1.013-0.305,1.56-0.316
						c0.27-0.015,0.54-0.035,0.809-0.038c0.27,0.025,0.537,0.066,0.801,0.103c0.537,0.034,1.015,0.281,1.484,0.441
						c0.468,0.174,0.842,0.486,1.219,0.716c0.387,0.224,0.633,0.578,0.906,0.836c0.264,0.269,0.497,0.516,0.644,0.788
						c0.166,0.252,0.292,0.486,0.397,0.672c0.206,0.378,0.301,0.6,0.301,0.6s-0.234-0.106-0.605-0.303
						c-0.183-0.101-0.407-0.217-0.642-0.364c-0.228-0.159-0.532-0.265-0.828-0.412c-0.311-0.12-0.601-0.332-0.96-0.417
						c-0.351-0.093-0.686-0.273-1.06-0.332c-0.375-0.046-0.735-0.191-1.124-0.174c-0.191-0.011-0.383-0.017-0.574-0.04l-0.581,0.048
						c-0.391-0.015-0.774,0.133-1.165,0.174c-0.377,0.133-0.772,0.192-1.135,0.353c-0.372,0.129-0.733,0.273-1.073,0.433
						c-0.35,0.137-0.663,0.318-0.977,0.452c-0.303,0.16-0.581,0.307-0.827,0.437c-0.251,0.138-0.47,0.258-0.651,0.356
						C122.971,322.937,122.758,323.054,122.758,323.054z"/>
				</g>
			</g>
			<g>
				<path style="fill:#FDDEC0;" d="M102.36,299.801c0,0,11.5-12,18.5-2.5s19,45,39,47.5c0,0,3.833-41.333-14.167-57.333
					C126.841,270.71,101.86,280.801,102.36,299.801z"/>
				<g>
					<path style="fill:#FDDEC0;" d="M151.36,345.801c0,0-0.313-0.026-0.898-0.076c-0.583-0.085-1.456-0.188-2.523-0.518
						c-2.137-0.618-5.077-2.137-7.889-4.789c-1.404-1.318-2.819-2.862-4.135-4.62c-1.318-1.755-2.627-3.666-3.81-5.733
						c-1.195-2.06-2.345-4.23-3.424-6.471c-1.065-2.248-2.076-4.556-3.056-6.871c-0.984-2.313-1.871-4.658-2.779-6.943
						c-0.912-2.282-1.777-4.533-2.662-6.666c-0.905-2.128-1.806-4.137-2.946-5.785c-1.078-1.546-2.574-2.659-4.165-2.959
						c-1.604-0.32-3.231,0.059-4.583,0.574c-1.36,0.533-2.493,1.202-3.399,1.788c-1.803,1.202-2.729,2.068-2.729,2.068
						s0.185-0.254,0.565-0.707c0.381-0.451,0.954-1.108,1.777-1.857c0.819-0.752,1.878-1.619,3.28-2.382
						c1.381-0.76,3.196-1.442,5.339-1.254c1.058,0.096,2.167,0.441,3.147,1.047c0.983,0.593,1.857,1.403,2.628,2.333
						c1.463,1.786,2.471,3.931,3.492,6.065c1.014,2.152,1.957,4.397,2.88,6.681c0.931,2.272,1.876,4.58,2.821,6.889
						c0.939,2.302,1.906,4.587,2.919,6.801c0.997,2.221,2.013,4.387,3.097,6.424c1.089,2.033,2.172,3.979,3.338,5.73
						c1.166,1.749,2.345,3.348,3.564,4.71c1.226,1.351,2.442,2.512,3.636,3.397c1.19,0.887,2.313,1.559,3.294,2.006
						c0.981,0.449,1.791,0.72,2.35,0.891C151.056,345.723,151.36,345.801,151.36,345.801z"/>
				</g>
				<path style="fill:#FDDEC0;" d="M102.36,299.801c0,0,3.055-3.849,1.434-5.506c-3.565-3.646-16.215-6.087-17.934,8.006
					c-2.5,20.5,8,53.5-9.5,71c0,0,5.5,6.5,11.5-2.5c0,0-2,6-5.5,6.5c0,0,8.5,1.5,10.5-10.5S88.86,300.801,102.36,299.801z"/>
			</g>
		</g>
	</g>
	<g>
		<g>
			<g>
				<path style="fill:#F19C7C;" d="M699.251,202.782c-5.946-15.98-42.314-23.612-48.683-28.243
					c-8.176-5.946-5.574-25.642-5.574-25.642l-13.379,0.352l-13.378-0.352c0,0,2.601,19.696-5.574,25.642
					c-6.369,4.632-42.737,12.264-48.683,28.243c-5.946,15.98-8.176,30.102-8.176,30.102h75.068h1.487h75.068
					C707.426,232.884,705.197,218.762,699.251,202.782z"/>
				<path style="fill:#D88971;" d="M615.758,170.869c6.263-0.64,12.558-1.909,18.011-4.959c3.975-2.223,7.554-4.848,10.876-7.803
					c-0.197-5.061,0.349-9.21,0.349-9.21l-13.379,0.352l-13.378-0.352C618.236,148.896,620.088,162.915,615.758,170.869z"/>
			</g>
			<g>
				<path style="fill:#5D8584;" d="M700.305,202.561c-5.792-15.566-40.235-23.268-48.304-27.978
					c-6.373,3.706-14.146,5.891-22.544,5.891c-7.297,0-14.123-1.649-19.969-4.511c-11.311,4.814-40.19,12.464-45.449,26.598
					c-5.99,16.097-8.236,30.323-8.236,30.323h75.62h1.497h75.62C708.541,232.884,706.295,218.658,700.305,202.561z"/>
				<path style="fill:#7BADAA;" d="M609.488,175.962c0,0,4.872-3.161,5.983-8.05l32.222-1.556c0,0,1.111,6.445,5.556,8.889
					C653.249,175.246,629.728,188.679,609.488,175.962z"/>
			</g>
		</g>
		<g>
			<g>
				<path style="fill:#D88971;" d="M609.15,118.191c-2.161-6.703-7.277-5.151-7.756-4.99c-0.502,0.059-5.791,0.844-4.877,7.827
					c0.919,7.025,4.995,10.832,8.818,9.714C609.268,130.12,611.324,124.935,609.15,118.191z"/>
				<path style="fill:#D88971;" d="M653.409,118.191c2.161-6.703,7.277-5.151,7.756-4.99c0.502,0.059,5.791,0.844,4.877,7.827
					c-0.919,7.025-4.995,10.832-8.818,9.714C653.292,130.12,651.235,124.935,653.409,118.191z"/>
				<path style="fill:#F19C7C;" d="M657.87,107.646c-2.678-29.387-25.019-27.741-27.126-27.52
					c-2.107-0.221-24.448-1.867-27.126,27.52c-2.694,29.563,10.474,48.87,27.126,47.808
					C647.396,156.516,660.564,137.209,657.87,107.646z"/>
			</g>
			<g>
				<g>
					<path style="fill:#B26E59;" d="M633.937,117.68c0.16,0.472,0.281,0.95,0.413,1.426c0.137,0.475,0.247,0.955,0.36,1.434
						c0.219,0.959,0.407,1.922,0.578,2.887c0.159,0.967,0.322,1.934,0.439,2.907c0.133,0.971,0.233,1.947,0.317,2.924l0.022,0.253
						l-0.156,0.134c-0.589,0.504-1.19,0.996-1.799,1.479c-0.627,0.464-1.229,0.955-1.881,1.393c0.472-0.628,0.995-1.202,1.493-1.803
						c0.516-0.582,1.039-1.156,1.574-1.717l-0.135,0.387c-0.193-0.962-0.371-1.927-0.516-2.896c-0.16-0.967-0.275-1.941-0.393-2.914
						c-0.107-0.975-0.196-1.952-0.255-2.933c-0.026-0.491-0.055-0.982-0.056-1.477C633.933,118.67,633.915,118.178,633.937,117.68z"
						/>
				</g>
				<path style="fill:#FFFFFF;" d="M617.808,136.842l26.513-0.278C644.321,136.565,633.719,146.999,617.808,136.842z"/>
				<g>
					<path style="fill:#B26E59;" d="M624.607,142.167c0,0,0.284,0.061,0.77,0.194c0.486,0.113,1.175,0.385,2.01,0.512
						c0.416,0.073,0.862,0.152,1.325,0.25c0.457,0.126,0.98,0.086,1.492,0.159c0.518,0.046,1.051,0.117,1.595,0.07
						c0.542-0.022,1.095-0.019,1.643-0.059c0.543-0.086,1.087-0.172,1.622-0.257c0.545-0.048,1.036-0.277,1.538-0.402
						c0.492-0.158,0.995-0.252,1.415-0.484c0.432-0.202,0.85-0.38,1.239-0.546c0.401-0.146,0.714-0.374,1.016-0.542
						c0.299-0.177,0.56-0.33,0.774-0.457c0.434-0.252,0.697-0.387,0.697-0.387s-0.195,0.208-0.562,0.557
						c-0.186,0.174-0.411,0.385-0.67,0.627c-0.264,0.238-0.54,0.546-0.928,0.752c-0.369,0.236-0.774,0.491-1.211,0.748
						c-0.421,0.293-0.93,0.463-1.45,0.659c-0.26,0.098-0.525,0.197-0.793,0.297l-0.406,0.15l-0.429,0.079
						c-0.575,0.104-1.16,0.209-1.745,0.315c-0.592,0.031-1.186,0.017-1.769,0.025c-0.586,0.041-1.149-0.094-1.695-0.173
						c-0.544-0.104-1.076-0.136-1.558-0.322c-0.487-0.153-0.94-0.312-1.354-0.458c-0.425-0.124-0.772-0.312-1.078-0.484
						c-0.309-0.165-0.579-0.31-0.801-0.429C624.854,142.32,624.607,142.167,624.607,142.167z"/>
				</g>
				<g>
					<path style="fill:#352C38;" d="M616.844,118.123c0,2.213,0.822,4.008,1.835,4.008c1.013,0,1.835-1.794,1.835-4.008
						c0-2.213-0.821-4.008-1.835-4.008C617.666,114.115,616.844,115.909,616.844,118.123z"/>
					<path style="fill:#352C38;" d="M642.058,118.123c0,2.213,0.821,4.008,1.835,4.008c1.013,0,1.835-1.794,1.835-4.008
						c0-2.213-0.822-4.008-1.835-4.008C642.88,114.115,642.058,115.909,642.058,118.123z"/>
				</g>
				<g>
					<path style="fill:#352C38;" d="M612.34,111.565c0,0,0.319-0.961,1.311-2.076c0.261-0.261,0.522-0.58,0.867-0.84
						c0.328-0.282,0.702-0.551,1.123-0.787c0.4-0.268,0.888-0.433,1.362-0.632c0.508-0.124,1.013-0.305,1.56-0.316
						c0.27-0.015,0.54-0.035,0.809-0.038c0.269,0.025,0.537,0.066,0.801,0.102c0.537,0.035,1.015,0.281,1.484,0.442
						c0.468,0.174,0.842,0.486,1.219,0.716c0.387,0.224,0.633,0.578,0.906,0.835c0.264,0.269,0.497,0.517,0.644,0.788
						c0.166,0.252,0.292,0.486,0.397,0.672c0.206,0.378,0.301,0.6,0.301,0.6s-0.234-0.106-0.604-0.304
						c-0.183-0.101-0.407-0.217-0.642-0.364c-0.228-0.159-0.532-0.265-0.828-0.412c-0.312-0.119-0.601-0.332-0.96-0.417
						c-0.351-0.093-0.686-0.273-1.06-0.332c-0.375-0.046-0.735-0.191-1.123-0.174c-0.191-0.011-0.383-0.017-0.574-0.04l-0.581,0.048
						c-0.391-0.015-0.774,0.133-1.165,0.174c-0.377,0.133-0.772,0.192-1.135,0.353c-0.372,0.129-0.733,0.273-1.072,0.433
						c-0.35,0.137-0.663,0.317-0.977,0.452c-0.303,0.16-0.581,0.307-0.827,0.437c-0.251,0.138-0.47,0.258-0.651,0.356
						C612.553,111.448,612.34,111.565,612.34,111.565z"/>
				</g>
				<g>
					<path style="fill:#352C38;" d="M637.732,111.565c0,0,0.319-0.961,1.311-2.076c0.261-0.261,0.522-0.58,0.867-0.84
						c0.328-0.282,0.702-0.551,1.123-0.787c0.4-0.268,0.888-0.433,1.362-0.632c0.508-0.124,1.013-0.305,1.56-0.316
						c0.27-0.015,0.54-0.035,0.809-0.038c0.269,0.025,0.537,0.066,0.801,0.102c0.537,0.035,1.015,0.281,1.484,0.442
						c0.468,0.174,0.842,0.486,1.219,0.716c0.387,0.224,0.633,0.578,0.906,0.835c0.264,0.269,0.497,0.517,0.644,0.788
						c0.166,0.252,0.292,0.486,0.397,0.672c0.206,0.378,0.301,0.6,0.301,0.6s-0.234-0.106-0.604-0.304
						c-0.183-0.101-0.407-0.217-0.642-0.364c-0.228-0.159-0.532-0.265-0.828-0.412c-0.312-0.119-0.601-0.332-0.96-0.417
						c-0.351-0.093-0.686-0.273-1.06-0.332c-0.375-0.046-0.735-0.191-1.124-0.174c-0.191-0.011-0.383-0.017-0.574-0.04l-0.581,0.048
						c-0.391-0.015-0.774,0.133-1.165,0.174c-0.377,0.133-0.772,0.192-1.135,0.353c-0.372,0.129-0.733,0.273-1.073,0.433
						c-0.35,0.137-0.663,0.317-0.977,0.452c-0.303,0.16-0.581,0.307-0.827,0.437c-0.251,0.138-0.47,0.258-0.651,0.356
						C637.944,111.448,637.732,111.565,637.732,111.565z"/>
				</g>
			</g>
			<g>
				<path style="fill:#FDDEC0;" d="M658.027,123.801c7.667-19,4.333-41.667,4.333-41.667c2.667-9-0.667-17.333-0.667-17.333
					c0,5.667-5,12.667-5,12.667c4.333-6.667,0.667-20,0.667-20c-2.667,5-14.333,13.667-14.333,13.667l5.667-8.333
					c-13.333-0.667-21.667,6-21.667,6l6.333-7c-18,1.667-25.333,14-25.333,14c-18.333,7.667-4.333,49.333-4.333,49.333h2v-15.333
					c0,0,6.667-3.333,6.333-20.333c0,0,16.667,5.333,36.667,0c0,0-2.333,17.333,7.333,19l-0.333,15.667L658.027,123.801z"/>
				<path style="opacity:0.1;fill:#352C38;" d="M628.062,91.792c-3.659-1.581-7.216-3.457-10.422-5.683
					c-4.348-3.02-7.102-6.971-8.764-11.514c-0.567,0.745-0.85,1.207-0.85,1.207c-18.333,7.667-4.333,49.333-4.333,49.333h2v-15.333
					c0,0,6.667-3.333,6.333-20.333C612.027,89.468,618.438,91.504,628.062,91.792z"/>
			</g>
		</g>
	</g>
	<g>
		<g>
			<g>
				<path style="fill:#965450;" d="M527.802,202.782c-5.946-15.98-42.314-23.612-48.683-28.243
					c-8.176-5.946-5.574-25.642-5.574-25.642l-13.379,0.352l-13.379-0.352c0,0,2.601,19.696-5.574,25.642
					c-6.368,4.632-42.737,12.264-48.683,28.243s-8.176,30.102-8.176,30.102h75.068h1.486h75.068
					C535.978,232.884,533.748,218.762,527.802,202.782z"/>
				<path style="fill:#76413B;" d="M444.31,170.869c6.263-0.64,12.558-1.909,18.011-4.959c3.975-2.223,7.554-4.848,10.876-7.803
					c-0.197-5.061,0.349-9.21,0.349-9.21l-13.379,0.352l-13.379-0.352C446.788,148.896,448.639,162.915,444.31,170.869z"/>
			</g>
			<g>
				<path style="fill:#FFA65B;" d="M528.857,202.561c-5.792-15.566-40.235-23.268-48.304-27.978
					c-6.373,3.706-14.146,5.891-22.544,5.891c-7.297,0-14.123-1.649-19.969-4.511c-11.311,4.814-40.19,12.464-45.449,26.598
					c-5.99,16.097-8.236,30.323-8.236,30.323h75.62h1.497h75.62C537.093,232.884,534.847,218.658,528.857,202.561z"/>
				<g>
					<g>
						<defs>
							<path id="SVGID_00000177474003371515436260000005810951363984993705_" d="M528.857,202.561
								c-5.792-15.566-40.235-23.268-48.304-27.978c-6.373,3.706-14.146,5.891-22.544,5.891c-7.297,0-14.123-1.649-19.969-4.511
								c-11.311,4.814-40.19,12.464-45.449,26.598c-5.99,16.097-8.236,30.323-8.236,30.323h75.62h1.497h75.62
								C537.093,232.884,534.847,218.658,528.857,202.561z"/>
						</defs>
						<clipPath id="SVGID_00000130631388197968404000000011142817653743187633_">
							<use xlink:href="#SVGID_00000177474003371515436260000005810951363984993705_"  style="overflow:visible;"/>
						</clipPath>
						<g style="clip-path:url(#SVGID_00000130631388197968404000000011142817653743187633_);">
							
								<line style="fill:none;stroke:#765E69;stroke-width:1.4129;stroke-miterlimit:10;" x1="514.478" y1="175.801" x2="514.478" y2="248.301"/>
							
								<line style="fill:none;stroke:#765E69;stroke-width:1.4129;stroke-miterlimit:10;" x1="505.085" y1="175.801" x2="505.085" y2="248.301"/>
							
								<line style="fill:none;stroke:#765E69;stroke-width:1.4129;stroke-miterlimit:10;" x1="495.692" y1="175.801" x2="495.692" y2="248.301"/>
							
								<line style="fill:none;stroke:#765E69;stroke-width:1.4129;stroke-miterlimit:10;" x1="486.3" y1="175.801" x2="486.3" y2="248.301"/>
							
								<line style="fill:none;stroke:#765E69;stroke-width:1.4129;stroke-miterlimit:10;" x1="476.907" y1="175.801" x2="476.907" y2="248.301"/>
							
								<line style="fill:none;stroke:#765E69;stroke-width:1.4129;stroke-miterlimit:10;" x1="467.514" y1="175.801" x2="467.514" y2="248.301"/>
							
								<line style="fill:none;stroke:#765E69;stroke-width:1.4129;stroke-miterlimit:10;" x1="458.121" y1="175.801" x2="458.121" y2="248.301"/>
							
								<line style="fill:none;stroke:#765E69;stroke-width:1.4129;stroke-miterlimit:10;" x1="448.728" y1="175.801" x2="448.728" y2="248.301"/>
							
								<line style="fill:none;stroke:#765E69;stroke-width:1.4129;stroke-miterlimit:10;" x1="439.335" y1="175.801" x2="439.335" y2="248.301"/>
							
								<line style="fill:none;stroke:#765E69;stroke-width:1.4129;stroke-miterlimit:10;" x1="429.942" y1="175.801" x2="429.942" y2="248.301"/>
							
								<line style="fill:none;stroke:#765E69;stroke-width:1.4129;stroke-miterlimit:10;" x1="420.55" y1="175.801" x2="420.55" y2="248.301"/>
							
								<line style="fill:none;stroke:#765E69;stroke-width:1.4129;stroke-miterlimit:10;" x1="411.157" y1="175.801" x2="411.157" y2="248.301"/>
							
								<line style="fill:none;stroke:#765E69;stroke-width:1.4129;stroke-miterlimit:10;" x1="401.764" y1="175.801" x2="401.764" y2="248.301"/>
							
								<line style="fill:none;stroke:#765E69;stroke-width:1.4129;stroke-miterlimit:10;" x1="392.371" y1="175.801" x2="392.371" y2="248.301"/>
							
								<line style="fill:none;stroke:#765E69;stroke-width:1.4129;stroke-miterlimit:10;" x1="523.871" y1="175.801" x2="523.871" y2="248.301"/>
							<line style="fill:none;stroke:#765E69;stroke-miterlimit:10;" x1="379.371" y1="197.196" x2="538.36" y2="197.196"/>
							<line style="fill:none;stroke:#765E69;stroke-miterlimit:10;" x1="379.371" y1="206.589" x2="538.36" y2="206.589"/>
							<line style="fill:none;stroke:#765E69;stroke-miterlimit:10;" x1="379.371" y1="215.982" x2="538.36" y2="215.982"/>
							<line style="fill:none;stroke:#765E69;stroke-miterlimit:10;" x1="379.371" y1="225.375" x2="538.36" y2="225.375"/>
							<line style="fill:none;stroke:#765E69;stroke-miterlimit:10;" x1="379.371" y1="187.803" x2="538.36" y2="187.803"/>
						</g>
					</g>
				</g>
			</g>
		</g>
		<g>
			<g>
				<path style="fill:#76413B;" d="M437.702,118.191c-2.161-6.703-7.277-5.151-7.756-4.99c-0.502,0.059-5.791,0.844-4.877,7.827
					c0.919,7.025,4.995,10.832,8.817,9.714C437.819,130.12,439.876,124.935,437.702,118.191z"/>
				<path style="fill:#76413B;" d="M481.961,118.191c2.161-6.703,7.277-5.151,7.756-4.99c0.502,0.059,5.791,0.844,4.877,7.827
					c-0.919,7.025-4.995,10.832-8.818,9.714C481.844,130.12,479.787,124.935,481.961,118.191z"/>
				<path style="fill:#965450;" d="M486.422,107.646c-2.678-29.387-25.019-27.741-27.126-27.52
					c-2.107-0.221-24.448-1.867-27.126,27.52c-2.694,29.563,10.474,48.87,27.126,47.808
					C475.948,156.516,489.115,137.209,486.422,107.646z"/>
			</g>
			<g>
				<g>
					<path style="fill:#76413B;" d="M460.779,132.517c0.078-0.2,0.182-0.371,0.28-0.549c0.093-0.183,0.206-0.346,0.316-0.511
						c0.225-0.325,0.472-0.628,0.731-0.917c0.267-0.281,0.531-0.566,0.827-0.816c0.285-0.262,0.593-0.5,0.913-0.726l-0.135,0.387
						c-0.239-1.946-0.46-3.894-0.67-5.844c-0.184-1.953-0.405-3.902-0.553-5.861c0.407,1.922,0.741,3.854,1.112,5.781
						c0.344,1.931,0.678,3.863,0.994,5.798l0.029,0.18l-0.164,0.207c-0.243,0.306-0.497,0.602-0.774,0.872
						c-0.266,0.282-0.564,0.531-0.859,0.782c-0.303,0.243-0.619,0.473-0.956,0.681c-0.171,0.102-0.339,0.205-0.527,0.288
						C461.159,132.356,460.983,132.451,460.779,132.517z"/>
				</g>
				<g>
					<path style="fill:#352C38;" d="M445.396,118.123c0,2.213,0.821,4.008,1.835,4.008s1.835-1.794,1.835-4.008
						c0-2.213-0.822-4.008-1.835-4.008S445.396,115.909,445.396,118.123z"/>
					<path style="fill:#352C38;" d="M470.61,118.123c0,2.213,0.822,4.008,1.835,4.008c1.013,0,1.835-1.794,1.835-4.008
						c0-2.213-0.821-4.008-1.835-4.008C471.432,114.115,470.61,115.909,470.61,118.123z"/>
				</g>
				<g>
					<path style="fill:#352C38;" d="M440.892,111.565c0,0,0.319-0.961,1.311-2.076c0.261-0.261,0.522-0.58,0.868-0.84
						c0.328-0.282,0.702-0.551,1.123-0.787c0.4-0.268,0.888-0.433,1.362-0.632c0.508-0.124,1.013-0.305,1.56-0.316
						c0.27-0.015,0.54-0.035,0.809-0.038c0.27,0.025,0.537,0.066,0.801,0.102c0.537,0.035,1.015,0.281,1.484,0.442
						c0.468,0.174,0.842,0.486,1.218,0.716c0.387,0.224,0.633,0.578,0.906,0.835c0.264,0.269,0.497,0.517,0.644,0.788
						c0.166,0.252,0.292,0.486,0.397,0.672c0.206,0.378,0.301,0.6,0.301,0.6s-0.234-0.106-0.605-0.304
						c-0.183-0.101-0.407-0.217-0.642-0.364c-0.228-0.159-0.532-0.265-0.828-0.412c-0.311-0.119-0.601-0.332-0.96-0.417
						c-0.351-0.093-0.686-0.273-1.06-0.332c-0.375-0.046-0.735-0.191-1.124-0.174c-0.191-0.011-0.383-0.017-0.574-0.04l-0.581,0.048
						c-0.391-0.015-0.774,0.133-1.165,0.174c-0.377,0.133-0.772,0.192-1.135,0.353c-0.372,0.129-0.733,0.273-1.072,0.433
						c-0.35,0.137-0.663,0.317-0.977,0.452c-0.303,0.16-0.581,0.307-0.827,0.437c-0.251,0.138-0.47,0.258-0.651,0.356
						C441.104,111.448,440.892,111.565,440.892,111.565z"/>
				</g>
				<g>
					<path style="fill:#352C38;" d="M466.284,111.565c0,0,0.319-0.961,1.311-2.076c0.261-0.261,0.522-0.58,0.867-0.84
						c0.328-0.282,0.702-0.551,1.123-0.787c0.4-0.268,0.888-0.433,1.362-0.632c0.508-0.124,1.013-0.305,1.56-0.316
						c0.27-0.015,0.54-0.035,0.809-0.038c0.27,0.025,0.537,0.066,0.801,0.102c0.537,0.035,1.015,0.281,1.484,0.442
						c0.468,0.174,0.842,0.486,1.219,0.716c0.387,0.224,0.633,0.578,0.906,0.835c0.264,0.269,0.497,0.517,0.644,0.788
						c0.166,0.252,0.292,0.486,0.397,0.672c0.206,0.378,0.301,0.6,0.301,0.6s-0.234-0.106-0.604-0.304
						c-0.183-0.101-0.407-0.217-0.642-0.364c-0.228-0.159-0.532-0.265-0.828-0.412c-0.311-0.119-0.601-0.332-0.959-0.417
						c-0.352-0.093-0.686-0.273-1.06-0.332c-0.375-0.046-0.735-0.191-1.124-0.174c-0.191-0.011-0.383-0.017-0.574-0.04l-0.581,0.048
						c-0.391-0.015-0.774,0.133-1.166,0.174c-0.377,0.133-0.772,0.192-1.135,0.353c-0.372,0.129-0.733,0.273-1.073,0.433
						c-0.35,0.137-0.663,0.317-0.977,0.452c-0.303,0.16-0.581,0.307-0.827,0.437c-0.251,0.138-0.47,0.258-0.651,0.356
						C466.496,111.448,466.284,111.565,466.284,111.565z"/>
				</g>
				<path style="fill:#FFFFFF;" d="M448.11,136.801l24.763-0.237C472.873,136.565,462.11,146.551,448.11,136.801z"/>
			</g>
			<g>
				<path style="fill:#352C38;" d="M430.61,90.801c0,0-1.5,36.75,2.75,54c3.199,12.984,12.5,16.5,12.5,16.5s22,8.5,34.25-5.25
					c3.528-3.96,9-24.75,6.5-62l-9-3.75c0,0,1.5,18.25,6,20.5c0,0-1.323,32.616-7,36.5c-4.75,3.25,3.25-15-6-14.75s-9.5,0.5-9.5,0.5
					s-16.5-2.75-16.25,3.75s2,10.75-0.25,10.75s-10.5-5.25-9-39.5c0,0,4.75-1.75,4.75-13.75
					C440.36,78.52,430.61,90.801,430.61,90.801z"/>
				<path style="fill:#352C38;" d="M439.36,88.801c0,0,7.191,9.75,15.75,9.75c4.75,0,0-8.25,0-8.25s6.75,10.5,13.75,10.25
					s1-10.25,1-10.25s5.25,10.75,11.75,10.25s1-11,1-11s3,11.25,9.25,9.75s-1.5-11.25-1.5-11.25s5.25,5,7.5,4.75s2.25-7-5.5-10.25
					c0,0,7.75-0.25,8-4c0.283-4.248-4.75-5.75-16.25-4.5c0,0,9.5-4,7.5-7.5s-10.5,1.5-10.5,1.5s8.5-4.75,3.5-8.5
					c-4.104-3.078-25.5-3-38.5,12.5c0,0,27-14.25,23.75-16.25c-2.295-1.412-34.594,5.805-39.5,19.5c-6,16.75-1.5,26.25,0.44,37.655
					L439.36,88.801z"/>
			</g>
		</g>
	</g>
	<g>
		<g>
			<g>
				<path style="fill:#FDDEC0;" d="M356.354,202.782c-5.946-15.98-42.314-23.612-48.683-28.243
					c-8.176-5.946-5.574-25.642-5.574-25.642l-13.378,0.352l-13.379-0.352c0,0,2.601,19.696-5.574,25.642
					c-6.368,4.632-42.737,12.264-48.683,28.243s-8.176,30.102-8.176,30.102h75.068h1.487h75.068
					C364.53,232.884,362.3,218.762,356.354,202.782z"/>
				<path style="fill:#E2C6AF;" d="M272.861,170.869c6.263-0.64,12.558-1.909,18.011-4.959c3.975-2.223,7.554-4.848,10.876-7.803
					c-0.197-5.061,0.349-9.21,0.349-9.21l-13.378,0.352l-13.379-0.352C275.34,148.896,277.191,162.915,272.861,170.869z"/>
			</g>
			<g>
				<g>
					<path style="fill:#FC6A5A;" d="M357.409,202.561c-5.792-15.566-40.235-23.268-48.304-27.978
						c-0.546,0.317-1.115,0.608-1.681,0.902l-17.731,19.983l-24.517-18.925c-12.129,4.845-38.98,12.437-44.034,26.018
						c-5.99,16.097-8.236,30.323-8.236,30.323h152.738C365.645,232.884,363.399,218.658,357.409,202.561z"/>
					<g>
						<defs>
							<path id="SVGID_00000173881216377237215060000010883944310297134004_" d="M357.409,202.561
								c-5.792-15.566-40.235-23.268-48.304-27.978c-0.546,0.317-1.115,0.608-1.681,0.902l-17.731,19.983l-24.517-18.925
								c-12.129,4.845-38.98,12.437-44.034,26.018c-5.99,16.097-8.236,30.323-8.236,30.323h152.738
								C365.645,232.884,363.399,218.658,357.409,202.561z"/>
						</defs>
						<clipPath id="SVGID_00000061456263718149593230000008761046648626797459_">
							<use xlink:href="#SVGID_00000173881216377237215060000010883944310297134004_"  style="overflow:visible;"/>
						</clipPath>
						
							<line style="clip-path:url(#SVGID_00000061456263718149593230000008761046648626797459_);fill:none;stroke:#F99787;stroke-width:3;stroke-miterlimit:10;" x1="214.027" y1="221.301" x2="365.027" y2="221.301"/>
						
							<line style="clip-path:url(#SVGID_00000061456263718149593230000008761046648626797459_);fill:none;stroke:#F99787;stroke-miterlimit:10;" x1="214.027" y1="225.968" x2="365.027" y2="225.968"/>
					</g>
				</g>
				<g>
					<polygon style="fill:#BC7068;" points="284.027,184.468 289.693,195.468 293.693,183.135 296.693,189.135 289.36,196.801 
						281.027,189.468 					"/>
					<polygon style="fill:#F99787;" points="263.693,176.801 278.693,198.468 284.027,184.468 268.36,168.801 					"/>
					<polygon style="fill:#F99787;" points="313.027,175.135 299.027,197.135 293.693,183.135 309.36,167.468 					"/>
				</g>
			</g>
		</g>
		<g>
			<g>
				<path style="fill:#E2C6AF;" d="M266.254,118.191c-2.161-6.703-7.277-5.151-7.756-4.99c-0.502,0.059-5.791,0.844-4.877,7.827
					c0.919,7.025,4.995,10.832,8.818,9.714C266.371,130.12,268.427,124.935,266.254,118.191z"/>
				<path style="fill:#E2C6AF;" d="M308.179,117.525c2.161-6.703,7.277-5.151,7.756-4.99c0.502,0.059,5.791,0.844,4.877,7.827
					c-0.919,7.025-4.995,10.832-8.818,9.714C308.062,129.453,306.006,124.268,308.179,117.525z"/>
				<path style="fill:#FDDEC0;" d="M314.973,107.646c-2.678-29.387-25.019-27.741-27.126-27.52
					c-2.107-0.221-24.448-1.867-27.126,27.52c-2.694,29.563,10.474,48.87,27.126,47.808
					C304.5,156.516,317.667,137.209,314.973,107.646z"/>
			</g>
			<g>
				<g>
					<path style="fill:#E2C6AF;" d="M291.04,117.68c0.433,0.928,0.761,1.871,1.041,2.821c0.154,0.473,0.257,0.953,0.388,1.429
						c0.127,0.477,0.212,0.96,0.32,1.439c0.205,0.961,0.359,1.929,0.483,2.901c0.134,0.971,0.198,1.952,0.267,2.932l0.036,0.509
						l-0.291,0.222c-1.237,0.946-2.502,1.864-3.953,2.584c0.798-1.41,1.782-2.623,2.794-3.808l-0.255,0.731
						c-0.208-0.96-0.422-1.92-0.565-2.889c-0.153-0.968-0.277-1.94-0.349-2.92c-0.031-0.491-0.085-0.978-0.096-1.471
						c-0.008-0.494-0.043-0.984-0.028-1.481C290.834,119.689,290.885,118.692,291.04,117.68z"/>
				</g>
				<path style="fill:#FFFFFF;" d="M274.912,136.842l26.513-0.278C301.425,136.565,290.823,146.999,274.912,136.842z"/>
				<g>
					<path style="fill:#E2C6AF;" d="M281.711,142.167c0,0,0.282,0.066,0.766,0.204c0.484,0.117,1.168,0.398,2.003,0.532
						c0.416,0.077,0.862,0.16,1.327,0.261c0.458,0.129,0.982,0.093,1.495,0.167c0.52,0.048,1.054,0.122,1.6,0.075
						c0.545-0.021,1.1-0.018,1.65-0.057c0.546-0.087,1.091-0.174,1.628-0.26c0.547-0.048,1.039-0.282,1.543-0.408
						c0.494-0.16,0.997-0.258,1.417-0.493c0.432-0.205,0.849-0.387,1.238-0.556c0.4-0.15,0.712-0.381,1.012-0.552
						c0.297-0.18,0.556-0.337,0.769-0.466c0.431-0.257,0.69-0.396,0.69-0.396s-0.199,0.204-0.569,0.548
						c-0.187,0.171-0.415,0.379-0.675,0.618c-0.266,0.234-0.544,0.538-0.932,0.741c-0.37,0.232-0.776,0.483-1.213,0.738
						c-0.421,0.29-0.93,0.456-1.448,0.65c-0.26,0.096-0.524,0.194-0.791,0.293l-0.405,0.148l-0.427,0.078
						c-0.573,0.103-1.156,0.207-1.738,0.312c-0.589,0.031-1.182,0.018-1.762,0.027c-0.584,0.041-1.145-0.091-1.69-0.168
						c-0.542-0.102-1.074-0.13-1.555-0.314c-0.486-0.15-0.938-0.305-1.352-0.447c-0.425-0.121-0.774-0.304-1.081-0.473
						c-0.311-0.162-0.582-0.303-0.805-0.419C281.96,142.315,281.711,142.167,281.711,142.167z"/>
				</g>
				<g>
					<ellipse style="fill:#352C38;" cx="275.783" cy="118.123" rx="1.835" ry="4.008"/>
					<path style="fill:#352C38;" d="M299.162,118.123c0,2.213,0.822,4.008,1.835,4.008c1.013,0,1.835-1.794,1.835-4.008
						c0-2.213-0.822-4.008-1.835-4.008C299.983,114.115,299.162,115.909,299.162,118.123z"/>
				</g>
				<g>
					<path style="fill:#352C38;" d="M269.444,111.565c0,0,0.319-0.961,1.311-2.076c0.261-0.261,0.522-0.58,0.868-0.84
						c0.328-0.282,0.702-0.551,1.123-0.787c0.4-0.268,0.888-0.433,1.362-0.632c0.508-0.124,1.013-0.305,1.56-0.316
						c0.27-0.015,0.54-0.035,0.809-0.038c0.269,0.025,0.537,0.066,0.801,0.102c0.537,0.035,1.015,0.281,1.484,0.442
						c0.468,0.174,0.842,0.486,1.219,0.716c0.387,0.224,0.633,0.578,0.906,0.835c0.264,0.269,0.497,0.517,0.644,0.788
						c0.166,0.252,0.292,0.486,0.397,0.672c0.205,0.378,0.301,0.6,0.301,0.6s-0.234-0.106-0.604-0.304
						c-0.183-0.101-0.407-0.217-0.642-0.364c-0.228-0.159-0.532-0.265-0.828-0.412c-0.311-0.119-0.601-0.332-0.96-0.417
						c-0.351-0.093-0.686-0.273-1.06-0.332c-0.375-0.046-0.735-0.191-1.124-0.174c-0.191-0.011-0.383-0.017-0.574-0.04l-0.581,0.048
						c-0.391-0.015-0.774,0.133-1.165,0.174c-0.377,0.133-0.772,0.192-1.135,0.353c-0.372,0.129-0.733,0.273-1.072,0.433
						c-0.35,0.137-0.663,0.317-0.977,0.452c-0.303,0.16-0.581,0.307-0.827,0.437c-0.251,0.138-0.47,0.258-0.65,0.356
						C269.656,111.448,269.444,111.565,269.444,111.565z"/>
				</g>
				<g>
					<path style="fill:#352C38;" d="M294.835,111.565c0,0,0.319-0.961,1.311-2.076c0.261-0.261,0.522-0.58,0.867-0.84
						c0.328-0.282,0.702-0.551,1.123-0.787c0.4-0.268,0.888-0.433,1.362-0.632c0.508-0.124,1.013-0.305,1.56-0.316
						c0.27-0.015,0.54-0.035,0.809-0.038c0.27,0.025,0.537,0.066,0.801,0.102c0.537,0.035,1.015,0.281,1.484,0.442
						c0.468,0.174,0.842,0.486,1.219,0.716c0.387,0.224,0.633,0.578,0.906,0.835c0.264,0.269,0.497,0.517,0.644,0.788
						c0.166,0.252,0.292,0.486,0.397,0.672c0.206,0.378,0.301,0.6,0.301,0.6s-0.234-0.106-0.605-0.304
						c-0.183-0.101-0.407-0.217-0.642-0.364c-0.228-0.159-0.532-0.265-0.828-0.412c-0.311-0.119-0.601-0.332-0.96-0.417
						c-0.351-0.093-0.686-0.273-1.06-0.332c-0.375-0.046-0.735-0.191-1.124-0.174c-0.191-0.011-0.383-0.017-0.574-0.04l-0.581,0.048
						c-0.391-0.015-0.774,0.133-1.165,0.174c-0.377,0.133-0.772,0.192-1.135,0.353c-0.372,0.129-0.733,0.273-1.073,0.433
						c-0.35,0.137-0.663,0.317-0.977,0.452c-0.303,0.16-0.581,0.307-0.827,0.437c-0.251,0.138-0.47,0.258-0.651,0.356
						C295.048,111.448,294.835,111.565,294.835,111.565z"/>
				</g>
			</g>
			<g>
				<path style="fill:#352C38;" d="M269.961,96.209c0,0,8.066,10.593,20.733,12.259l-3-4.333c0,0,5,3.667,13.667,5.333
					c0,0,1.667-6-2.333-12.333c0,0,5.667,12.333,12.333,17c0,0,2.667-8.667-0.667-13.667c0,0,2.125,2.355,8.458,10.022
					c0,0,7.091-21.512-10.242-33.178c-17.333-11.667-35.834-1.14-41.834,5.193c0,0-10.675-3.606-13.127,10.675
					c-2.031,11.827,2.452,20.917,2.452,20.917s3.751-2.474,3.751,5.193l0.876,7.845h2.333l0.333-15.667
					C263.693,111.468,269.627,109.209,269.961,96.209z"/>
				<path style="fill:#352C38;" d="M312.1,126.7c0.839-0.028,1.679-0.055,2.518-0.082c2.296-8.228,0.742-23.149,0.742-23.149
					s-7.789-15.482-4.667-3C313.273,110.78,312.383,123.493,312.1,126.7z"/>
			</g>
		</g>
	</g>
	<g>
		<g>
			<g>
				<path style="fill:#FFAC9D;" d="M184.906,202.782c-5.946-15.98-42.314-23.612-48.683-28.243
					c-8.176-5.946-5.574-25.642-5.574-25.642l-13.379,0.352l-13.379-0.352c0,0,2.601,19.696-5.574,25.642
					c-6.368,4.632-42.737,12.264-48.683,28.243s-8.176,30.102-8.176,30.102h75.068h1.486h75.068
					C193.082,232.884,190.852,218.762,184.906,202.782z"/>
				<path style="fill:#CC887F;" d="M101.413,170.869c6.263-0.64,12.558-1.909,18.011-4.959c3.975-2.223,7.554-4.848,10.876-7.803
					c-0.197-5.061,0.349-9.21,0.349-9.21l-13.379,0.352l-13.379-0.352C103.892,148.896,105.743,162.915,101.413,170.869z"/>
			</g>
			<g>
				<path style="fill:#6F96BD;" d="M185.961,202.561c-4.631-12.445-27.566-19.861-40.704-24.743
					c-5.713,6.594-15.858,10.983-27.429,10.983c-11.571,0-21.716-4.389-27.429-10.983c-13.139,4.882-36.074,12.298-40.704,24.743
					c-5.99,16.097-8.236,30.323-8.236,30.323h75.62h1.497h75.62C194.197,232.884,191.951,218.658,185.961,202.561z"/>
				<path style="fill:#85B7E0;" d="M117.779,193.901c14.678,0,27.273-5.845,32.673-14.178c-1.843-0.675-3.593-1.309-5.195-1.904
					c-5.713,6.594-15.858,10.983-27.429,10.983c-11.571,0-21.716-4.389-27.429-10.983c-1.625,0.604-3.401,1.247-5.272,1.933
					C90.536,188.069,103.118,193.901,117.779,193.901z"/>
			</g>
		</g>
		<g>
			<g>
				<path style="fill:#CC887F;" d="M94.806,118.191c-2.161-6.703-7.277-5.151-7.756-4.99c-0.502,0.059-5.791,0.844-4.877,7.827
					c0.919,7.025,4.995,10.832,8.817,9.714C94.923,130.12,96.979,124.935,94.806,118.191z"/>
				<path style="fill:#CC887F;" d="M138.064,118.191c2.161-6.703,7.277-5.151,7.756-4.99c0.502,0.059,5.791,0.844,4.877,7.827
					c-0.919,7.025-4.995,10.832-8.817,9.714C137.947,130.12,135.89,124.935,138.064,118.191z"/>
				<path style="fill:#FFAC9D;" d="M143.525,107.646c-2.678-29.387-25.019-27.741-27.126-27.52
					c-2.107-0.221-24.448-1.867-27.126,27.52c-2.694,29.563,10.474,48.87,27.126,47.808
					C133.051,156.516,146.219,137.209,143.525,107.646z"/>
			</g>
			<g>
				<g>
					<path style="fill:#CC887F;" d="M119.592,117.68c0.16,0.472,0.281,0.95,0.413,1.426c0.137,0.475,0.247,0.955,0.36,1.434
						c0.219,0.959,0.407,1.922,0.578,2.887c0.159,0.967,0.322,1.934,0.439,2.907c0.133,0.971,0.233,1.947,0.317,2.924l0.022,0.253
						l-0.156,0.134c-0.589,0.504-1.191,0.996-1.799,1.479c-0.627,0.464-1.229,0.955-1.881,1.393
						c0.472-0.628,0.995-1.202,1.493-1.803c0.516-0.582,1.039-1.156,1.574-1.717l-0.135,0.387c-0.193-0.962-0.371-1.927-0.516-2.896
						c-0.16-0.967-0.275-1.941-0.393-2.914c-0.107-0.975-0.196-1.952-0.255-2.933c-0.026-0.491-0.055-0.982-0.056-1.477
						C119.588,118.67,119.571,118.178,119.592,117.68z"/>
				</g>
				<path style="fill:#FFFFFF;" d="M103.464,136.842l26.513-0.278C129.977,136.565,119.374,146.999,103.464,136.842z"/>
				<g>
					<path style="fill:#CC887F;" d="M110.263,142.167c0,0,0.284,0.061,0.77,0.194c0.485,0.113,1.175,0.385,2.01,0.512
						c0.416,0.073,0.862,0.152,1.326,0.25c0.457,0.126,0.98,0.086,1.492,0.159c0.518,0.046,1.051,0.117,1.595,0.07
						c0.543-0.022,1.095-0.019,1.643-0.059c0.543-0.086,1.087-0.172,1.622-0.257c0.545-0.048,1.036-0.277,1.538-0.402
						c0.492-0.158,0.995-0.252,1.415-0.484c0.432-0.202,0.85-0.38,1.239-0.546c0.401-0.146,0.714-0.374,1.016-0.542
						c0.299-0.177,0.56-0.33,0.774-0.457c0.434-0.252,0.696-0.387,0.696-0.387s-0.195,0.208-0.562,0.557
						c-0.186,0.174-0.411,0.385-0.67,0.627c-0.264,0.238-0.54,0.546-0.928,0.752c-0.369,0.236-0.774,0.491-1.211,0.748
						c-0.421,0.293-0.93,0.463-1.45,0.659c-0.26,0.098-0.525,0.197-0.793,0.297l-0.406,0.15l-0.429,0.079
						c-0.575,0.104-1.16,0.209-1.745,0.315c-0.591,0.031-1.186,0.017-1.769,0.025c-0.586,0.041-1.149-0.094-1.696-0.173
						c-0.544-0.104-1.076-0.136-1.558-0.322c-0.487-0.153-0.939-0.312-1.353-0.458c-0.425-0.124-0.772-0.312-1.078-0.484
						c-0.309-0.165-0.579-0.31-0.801-0.429C110.51,142.32,110.263,142.167,110.263,142.167z"/>
				</g>
				<g>
					<path style="fill:#352C38;" d="M102.5,118.123c0,2.213,0.821,4.008,1.835,4.008c1.013,0,1.835-1.794,1.835-4.008
						c0-2.213-0.821-4.008-1.835-4.008C103.321,114.115,102.5,115.909,102.5,118.123z"/>
					<path style="fill:#352C38;" d="M127.714,118.123c0,2.213,0.821,4.008,1.835,4.008c1.013,0,1.835-1.794,1.835-4.008
						c0-2.213-0.822-4.008-1.835-4.008C128.535,114.115,127.714,115.909,127.714,118.123z"/>
				</g>
				<g>
					<path style="fill:#352C38;" d="M97.996,111.565c0,0,0.319-0.961,1.311-2.076c0.261-0.261,0.522-0.58,0.868-0.84
						c0.328-0.282,0.702-0.551,1.123-0.787c0.4-0.268,0.888-0.433,1.362-0.632c0.508-0.124,1.013-0.305,1.56-0.316
						c0.27-0.015,0.54-0.035,0.809-0.038c0.27,0.025,0.537,0.066,0.801,0.102c0.537,0.035,1.015,0.281,1.484,0.442
						c0.468,0.174,0.842,0.486,1.219,0.716c0.387,0.224,0.633,0.578,0.906,0.835c0.264,0.269,0.497,0.517,0.644,0.788
						c0.166,0.252,0.292,0.486,0.397,0.672c0.205,0.378,0.301,0.6,0.301,0.6s-0.234-0.106-0.604-0.304
						c-0.183-0.101-0.407-0.217-0.642-0.364c-0.228-0.159-0.532-0.265-0.828-0.412c-0.311-0.119-0.601-0.332-0.959-0.417
						c-0.351-0.093-0.686-0.273-1.06-0.332c-0.375-0.046-0.735-0.191-1.124-0.174c-0.191-0.011-0.383-0.017-0.574-0.04l-0.581,0.048
						c-0.391-0.015-0.774,0.133-1.165,0.174c-0.377,0.133-0.772,0.192-1.135,0.353c-0.372,0.129-0.733,0.273-1.073,0.433
						c-0.35,0.137-0.663,0.317-0.976,0.452c-0.303,0.16-0.581,0.307-0.827,0.437c-0.251,0.138-0.47,0.258-0.65,0.356
						C98.208,111.448,97.996,111.565,97.996,111.565z"/>
				</g>
				<g>
					<path style="fill:#352C38;" d="M123.387,111.565c0,0,0.319-0.961,1.311-2.076c0.261-0.261,0.522-0.58,0.868-0.84
						c0.328-0.282,0.702-0.551,1.123-0.787c0.4-0.268,0.888-0.433,1.362-0.632c0.508-0.124,1.013-0.305,1.56-0.316
						c0.27-0.015,0.54-0.035,0.809-0.038c0.27,0.025,0.537,0.066,0.801,0.102c0.537,0.035,1.015,0.281,1.484,0.442
						c0.468,0.174,0.842,0.486,1.218,0.716c0.387,0.224,0.633,0.578,0.906,0.835c0.264,0.269,0.497,0.517,0.644,0.788
						c0.166,0.252,0.292,0.486,0.397,0.672c0.205,0.378,0.301,0.6,0.301,0.6s-0.234-0.106-0.605-0.304
						c-0.183-0.101-0.407-0.217-0.642-0.364c-0.228-0.159-0.532-0.265-0.828-0.412c-0.311-0.119-0.601-0.332-0.96-0.417
						c-0.351-0.093-0.686-0.273-1.06-0.332c-0.375-0.046-0.735-0.191-1.124-0.174c-0.191-0.011-0.383-0.017-0.574-0.04l-0.581,0.048
						c-0.391-0.015-0.774,0.133-1.165,0.174c-0.377,0.133-0.772,0.192-1.135,0.353c-0.372,0.129-0.733,0.273-1.072,0.433
						c-0.35,0.137-0.663,0.317-0.977,0.452c-0.303,0.16-0.581,0.307-0.827,0.437c-0.251,0.138-0.47,0.258-0.651,0.356
						C123.6,111.448,123.387,111.565,123.387,111.565z"/>
				</g>
			</g>
			<g>
				<path style="fill:#965450;" d="M89.36,122.135c0,0-7-29-3-37.333c4-8.333,8.667-5.667,8.667-5.667s6.333-17.333,19.667-14
					c13.333,3.333,21,9.333,28,3.333c0,0,0,5.333-4,7.667c0,0,8.333,0,11.667-8c0,0,4.979,17.101-6.021,23.101
					c0,0,0.825,21.367,0.021,29.233l-3.001-0.333c0,0-1.667-11.333-2.667-25.667c0,0-17.333,9.333-38.333-7c0,0,3,11-9,18l1,15.333
					L89.36,122.135z"/>
				<path style="fill:#76413B;" d="M132.054,96.568c-4.961-0.338-9.927-1.434-13.956-2.981c-9.016-3.463-16.762-13.731-17.375-23.68
					c-3.83,4.134-5.697,9.228-5.697,9.228s-4.667-2.667-8.667,5.667c-4,8.333,3,37.333,3,37.333l3-1.333l-1-15.333c12-7,9-18,9-18
					C113.456,97.654,125.124,97.857,132.054,96.568z"/>
			</g>
		</g>
	</g>
</g>
</svg>
